<?xml version="1.0" standalone="no"?>
<!DOCTYPE svg PUBLIC "-//W3C//DTD SVG 1.1//EN" "http://www.w3.org/Graphics/SVG/1.1/DTD/svg11.dtd" >
<svg>
<metadata>
Created by FontForge 20090622 at Mon May  8 20:21:01 2017
 By deploy user
(C) 2004 House Industries/Brand Design Co. Inc. House Industries is a registered trademark of House Industries/ Brand Design Co., Inc.
</metadata>
<defs>
<font id="NeutraTextPS-Demi" horiz-adv-x="220" >
  <font-face 
    font-family="NeutraTextPS-Demi"
    font-weight="400"
    font-stretch="normal"
    units-per-em="1000"
    panose-1="0 0 0 0 0 0 0 0 0 0"
    ascent="800"
    descent="-200"
    x-height="420"
    cap-height="680"
    bbox="-65 -236 1139 954"
    underline-thickness="20"
    underline-position="-113"
    unicode-range="U+000D-U+FB02"
  />
<missing-glyph horiz-adv-x="500" 
 />
    <glyph glyph-name=".notdef" horiz-adv-x="500" 
 />
    <glyph glyph-name=".null" horiz-adv-x="0" 
 />
    <glyph glyph-name=".null" horiz-adv-x="0" 
 />
    <glyph glyph-name="nonmarkingreturn" unicode="&#xd;" horiz-adv-x="250" 
 />
    <glyph glyph-name="space" unicode=" " horiz-adv-x="229" 
 />
    <glyph glyph-name="exclam" unicode="!" horiz-adv-x="262" 
d="M74 680h114l-17 -470h-80zM131 -6q-27 0 -47.5 19t-20.5 49t20.5 49t47.5 19q28 0 48 -19t20 -49t-20 -49t-48 -19z" />
    <glyph glyph-name="quotedbl" unicode="&#x22;" horiz-adv-x="344" 
d="M197 680h109l-12 -228h-85zM38 680h108l-11 -228h-85z" />
    <glyph glyph-name="numbersign" unicode="#" horiz-adv-x="493" 
d="M91 264h-60v78h79l23 92h-63v79h82l27 103h80l-26 -103h88l26 103h81l-26 -103h60v-79h-79l-23 -92h62v-78h-82l-26 -104h-81l26 104h-88l-25 -104h-81zM279 342l23 92h-87l-24 -92h88z" />
    <glyph glyph-name="dollar" unicode="$" horiz-adv-x="467" 
d="M206 -8q-39 4 -70 15.5t-54.5 27.5t-39.5 35.5t-26 38.5l76 42q16 -27 42.5 -49t71.5 -29v152q-85 21 -123 58.5t-38 94.5q0 27 10.5 52t30.5 44t50.5 31.5t69.5 14.5v104h55v-106q54 -8 90.5 -33.5t54.5 -53.5l-67 -49q-10 17 -28.5 33.5t-49.5 24.5v-135
q88 -22 131.5 -60.5t43.5 -100.5q0 -68 -43.5 -107.5t-131.5 -44.5v-109h-55v109zM206 443q-35 -3 -51.5 -18t-16.5 -39q0 -25 14 -39.5t54 -25.5v122zM261 72q45 4 62.5 21t17.5 42q0 26 -16 44t-64 32v-139z" />
    <glyph glyph-name="percent" unicode="%" horiz-adv-x="809" 
d="M183 218q-31 0 -59.5 11t-50 31.5t-34 48t-12.5 60.5t12.5 61t34 48t50 31.5t59.5 11.5q32 0 60 -11.5t49.5 -31.5t34 -48t12.5 -61t-12.5 -60.5t-34 -48t-49.5 -31.5t-60 -11zM515 513h101l-322 -513h-101zM626 -9q-31 0 -59.5 11t-50 31.5t-34 48.5t-12.5 61t12.5 61
t34 48t50 31.5t59.5 11.5q32 0 60 -11.5t49.5 -31.5t34 -48t12.5 -61t-12.5 -61t-34 -48.5t-49.5 -31.5t-60 -11zM183 295q29 0 50 20t21 54q0 35 -21 55t-50 20q-28 0 -49.5 -20t-21.5 -55q0 -34 21.5 -54t49.5 -20zM626 69q29 0 50 20t21 54t-21 54t-50 20q-28 0 -49 -20
t-21 -54t21 -54t49 -20z" />
    <glyph glyph-name="ampersand" unicode="&#x26;" horiz-adv-x="673" 
d="M475 217q13 31 20 67.5t7 80.5h95q0 -67 -15.5 -124t-42.5 -102l113 -139h-125l-52 64q-41 -35 -90.5 -54t-106.5 -19q-56 0 -100.5 14t-75 39.5t-47 61t-16.5 78.5q0 39 11 69.5t32.5 55t52.5 45.5t70 41q-30 37 -43.5 72t-13.5 71q0 31 11.5 58.5t32.5 47.5t51 32
t67 12q73 0 116.5 -41t43.5 -107q0 -50 -31.5 -90t-93.5 -73zM294 439q42 23 62.5 47t20.5 54t-18 47.5t-47 17.5t-48 -18t-19 -48q0 -26 10.5 -46.5t27.5 -40.5zM255 334q-55 -29 -81 -62t-26 -81q0 -51 32.5 -79.5t97.5 -28.5q81 0 139 52z" />
    <glyph glyph-name="quotesingle" unicode="'" horiz-adv-x="184" 
d="M38 680h108l-11 -228h-85z" />
    <glyph glyph-name="parenleft" unicode="(" horiz-adv-x="315" 
d="M227 -137q-33 33 -65 75t-58 94.5t-42 117t-16 141.5t16 141t42 117t58 95t65 75l62 -51q-30 -35 -55 -74.5t-43 -85.5t-28 -99.5t-10 -117.5t10 -117.5t28 -99.5t43 -85.5t55 -74.5z" />
    <glyph glyph-name="parenright" unicode=")" horiz-adv-x="315" 
d="M26 -86q30 35 55 74.5t43 85.5t28 99.5t10 117.5t-10 117.5t-28 99.5t-43 85.5t-55 74.5l62 51q32 -33 64.5 -75t58.5 -94.5t42 -117t16 -141.5t-16 -141t-42 -117t-58.5 -95t-64.5 -75z" />
    <glyph glyph-name="asterisk" unicode="*" horiz-adv-x="409" 
d="M181 486l-90 -77l-44 76l115 39l-115 40l44 76l90 -77l-22 117h90l-22 -117l91 77l44 -76l-117 -40l117 -39l-44 -76l-91 77l22 -118h-90z" />
    <glyph glyph-name="plus" unicode="+" horiz-adv-x="391" 
d="M150 214h-111v89h111v118h91v-118h111v-89h-111v-118h-91v118z" />
    <glyph glyph-name="comma" unicode="," horiz-adv-x="225" 
d="M86 2q-19 8 -30.5 23.5t-11.5 38.5q0 29 20.5 48t48.5 19q27 0 47.5 -19.5t20.5 -48.5q0 -17 -6.5 -32.5t-14.5 -29.5l-59 -115h-53z" />
    <glyph glyph-name="hyphen" unicode="-" horiz-adv-x="294" 
d="M41 282h211v-91h-211v91z" />
    <glyph glyph-name="period" unicode="." horiz-adv-x="223" 
d="M112 -6q-28 0 -48.5 19.5t-20.5 49.5t20.5 49t48.5 19q27 0 47.5 -19t20.5 -49t-20.5 -49.5t-47.5 -19.5z" />
    <glyph glyph-name="slash" unicode="/" horiz-adv-x="416" 
d="M290 722h100l-290 -850h-100z" />
    <glyph glyph-name="zero" unicode="0" horiz-adv-x="618" 
d="M308 -9q-53 0 -102 20t-86.5 55.5t-59.5 84t-22 106.5t22 106.5t59.5 83.5t86.5 54.5t102 19.5q54 0 103.5 -19.5t87 -54.5t59.5 -83.5t22 -106.5t-22 -106.5t-59.5 -84t-87 -55.5t-103.5 -20zM308 82q35 0 65 12.5t52.5 36t35 55.5t12.5 71t-12.5 71.5t-35 55t-52.5 35
t-65 12.5q-34 0 -64 -12.5t-52 -35t-34.5 -55t-12.5 -71.5t12.5 -71t34.5 -55.5t52 -36t64 -12.5z" />
    <glyph glyph-name="one" unicode="1" horiz-adv-x="307" 
d="M131 428h-106v85h209v-513h-103v428z" />
    <glyph glyph-name="two" unicode="2" horiz-adv-x="476" 
d="M25 10l201 198q47 46 71.5 77.5t24.5 68.5q0 36 -23 55.5t-58 19.5q-41 0 -65.5 -25t-38.5 -67l-96 27q19 75 72 116t127 41q46 0 81 -12.5t58.5 -34.5t35.5 -51.5t12 -62.5q0 -51 -30 -99t-81 -94l-47 -43l-16.5 -13.5t-18.5 -13.5l-20 -14q13 1 24 2t21 1.5t17 0.5h160
v-87h-411v10z" />
    <glyph glyph-name="three" unicode="3" horiz-adv-x="508" 
d="M245 -103q-85 0 -141.5 38.5t-84.5 96.5l88 45q20 -45 55.5 -67t82.5 -22q51 0 85.5 31.5t34.5 90.5q0 60 -36.5 91t-94.5 31q-30 0 -49.5 -5t-34.5 -12l-8 10l133 171q5 8 11 14.5l11 11.5t11 10q-8 -1 -18 -2q-8 -1 -17.5 -1.5t-18.5 -0.5h-181v85h386v-9l-134 -171
l-10 -11.5t-9 -9.5l-10 -8q38 -5 70 -20t55.5 -40t37 -59t13.5 -77t-15 -81.5t-44 -67.5t-71.5 -45.5t-96.5 -16.5z" />
    <glyph glyph-name="four" unicode="4" horiz-adv-x="537" 
d="M503 91v-80h-72v-105h-100v105h-308v62l396 448h12v-430h72zM331 251q0 8 0.5 18.5t1.5 19.5l2 23q-5 -8 -11 -16q-5 -7 -11 -14.5l-12 -14.5l-120 -142q-6 -7 -13 -13.5l-13 -12.5l-13 -11q7 1 16 2q7 0 16 0.5t18 0.5h139v160z" />
    <glyph glyph-name="five" unicode="5" horiz-adv-x="496" 
d="M235 -103q-42 0 -76 9.5t-60.5 26t-45 38.5t-29.5 46l87 45q16 -32 44.5 -53t78.5 -21q54 0 86 33t32 84q0 53 -31.5 85t-94.5 32q-48 0 -80.5 -16t-55.5 -35l-10 4v338h333v-85h-248v-140q14 8 36.5 14.5t51.5 6.5q47 0 85 -15.5t65 -43.5t42 -65t15 -81q0 -43 -15 -81
t-43.5 -66t-70.5 -44t-96 -16z" />
    <glyph glyph-name="six" unicode="6" horiz-adv-x="518" 
d="M260 -9q-46 0 -86.5 15t-70.5 42t-47.5 65t-17.5 83q0 51 20 94.5t54 91.5l158 227h114l-130 -186q-7 -10 -16.5 -20l-17.5 -18q-10 -10 -21 -19q18 13 40 20.5t48 7.5q41 0 76 -14t61 -39.5t41 -62t15 -80.5q0 -46 -17 -84.5t-46.5 -65.5t-69.5 -42t-87 -15zM259 81
q54 0 86 34t32 83q0 50 -31 83.5t-87 33.5q-27 0 -49 -9.5t-37.5 -25.5t-23.5 -37.5t-8 -44.5q0 -49 31 -83t87 -34z" />
    <glyph glyph-name="seven" unicode="7" horiz-adv-x="468" 
d="M304 428h-273v85h410v-10l-269 -597h-105z" />
    <glyph glyph-name="eight" unicode="8" horiz-adv-x="529" 
d="M265 -9q-50 0 -92 14.5t-72 40t-47 61t-17 77.5q0 63 35.5 104t91.5 59q-34 16 -56.5 45t-22.5 74q0 30 12.5 57.5t36 48.5t57 33.5t74.5 12.5q42 0 75.5 -12.5t56.5 -33.5t35.5 -48.5t12.5 -57.5q0 -45 -22.5 -74t-56.5 -45q57 -18 91.5 -59t34.5 -104
q0 -42 -16.5 -77.5t-46.5 -61t-71.5 -40t-92.5 -14.5zM265 385q35 0 57.5 20.5t22.5 53.5q0 34 -22.5 54.5t-57.5 20.5t-57.5 -20.5t-22.5 -54.5q0 -33 22.5 -53.5t57.5 -20.5zM265 82q56 0 88.5 30.5t32.5 78.5q0 49 -32.5 81t-88.5 32t-88.5 -32t-32.5 -81
q0 -48 32.5 -78.5t88.5 -30.5z" />
    <glyph glyph-name="nine" unicode="9" horiz-adv-x="521" 
d="M269 90q7 11 16 20.5t18 17.5q9 9 19 17q-37 -28 -85 -28q-42 0 -78.5 14t-63.5 40t-42 62t-15 81q0 46 17 84t47 65.5t70.5 42.5t87.5 15q46 0 86.5 -14.5t71 -41t48 -64.5t17.5 -85q0 -51 -20 -94t-55 -94l-151 -222h-115zM260 196q28 0 50 9.5t37.5 26t23.5 37.5t8 45
q0 49 -32 83t-87 34q-54 0 -86.5 -34t-32.5 -83q0 -51 31.5 -84.5t87.5 -33.5z" />
    <glyph glyph-name="colon" unicode=":" horiz-adv-x="233" 
d="M117 220q-28 0 -48.5 20t-20.5 50t20.5 49.5t48.5 19.5q27 0 47.5 -19.5t20.5 -49.5t-20.5 -50t-47.5 -20zM117 -6q-28 0 -48.5 19.5t-20.5 49.5t20.5 49.5t48.5 19.5q27 0 47.5 -19.5t20.5 -49.5t-20.5 -49.5t-47.5 -19.5z" />
    <glyph glyph-name="semicolon" unicode=";" horiz-adv-x="235" 
d="M118 220q-28 0 -48.5 20t-20.5 50t20.5 49.5t48.5 19.5q27 0 47.5 -19.5t20.5 -49.5t-20.5 -50t-47.5 -20zM91 2q-19 8 -30.5 23.5t-11.5 38.5q0 29 20.5 48t48.5 19q27 0 47.5 -19.5t20.5 -48.5q0 -17 -6.5 -32.5t-14.5 -29.5l-59 -115h-53z" />
    <glyph glyph-name="less" unicode="&#x3c;" horiz-adv-x="357" 
d="M30 239v10l284 153v-89l-139 -70l139 -69v-90z" />
    <glyph glyph-name="equal" unicode="=" horiz-adv-x="387" 
d="M39 368h309v-88h-309v88zM39 222h309v-88h-309v88z" />
    <glyph glyph-name="greater" unicode="&#x3e;" horiz-adv-x="357" 
d="M43 173l138 70l-138 69v90l284 -155v-10l-284 -153v89z" />
    <glyph glyph-name="question" unicode="?" horiz-adv-x="491" 
d="M175 376h39q64 0 95.5 34.5t31.5 80.5t-29 76.5t-77 30.5q-46 0 -74 -20t-48 -58l-82 47q26 60 78 91t126 31q49 0 88 -15.5t66 -42.5t41.5 -63t14.5 -77q0 -80 -47 -131.5t-128 -60.5v-91h-95v168zM221 -6q-27 0 -47.5 19t-20.5 49t20.5 49t47.5 19t47.5 -19t20.5 -49
t-20.5 -49t-47.5 -19z" />
    <glyph glyph-name="at" unicode="@" horiz-adv-x="905" 
d="M462 -207q-88 0 -164.5 28t-133 80t-88.5 126t-32 166q0 89 33.5 163.5t90.5 128t132 83t158 29.5q89 0 163 -27.5t127.5 -76.5t83 -117.5t29.5 -149.5q0 -117 -46 -174t-124 -57q-48 0 -81 20t-46 65q-22 -46 -58 -67.5t-82 -21.5q-37 0 -69 14.5t-55.5 40.5t-37 61.5
t-13.5 78.5t13.5 79t37 62.5t55 41.5t68.5 15q45 0 74.5 -20.5t46.5 -53.5l-2 64h98v-229q0 -38 12 -56.5t42 -18.5q36 0 57.5 36t21.5 119q0 69 -22 124t-63 92.5t-99 57.5t-131 20q-71 0 -130 -24t-101 -67.5t-65.5 -103.5t-23.5 -131t22 -130t63.5 -101.5t101.5 -66
t136 -23.5q43 0 84.5 8.5t77.5 24.5l33 -71q-45 -21 -91 -31t-103 -10zM450 74q41 0 67.5 32.5t26.5 79.5q0 24 -7 44.5t-19.5 36t-30 24.5t-37.5 9q-45 0 -71 -32.5t-26 -81.5q0 -48 26 -80t71 -32z" />
    <glyph glyph-name="A" unicode="A" horiz-adv-x="659" 
d="M320 687h12l298 -687h-110l-39 96h-311l-39 -96h-102zM443 185l-85 212l-12.5 32.5t-10.5 33.5q-6 17 -11 35l-10 -35t-11 -34t-12 -32l-85 -212h237z" />
    <glyph glyph-name="B" unicode="B" horiz-adv-x="609" 
d="M82 680h247q48 0 84 -13.5t60 -36.5t36 -54.5t12 -66.5q0 -49 -23.5 -82.5t-68.5 -48.5q69 -16 104 -61.5t35 -111.5q0 -44 -14.5 -81.5t-42.5 -65t-69 -43t-95 -15.5h-265v680zM324 415q48 0 70.5 24t22.5 62t-22.5 62t-72.5 24h-134v-172h136zM341 93q62 0 91.5 32.5
t29.5 83.5t-31.5 83.5t-94.5 32.5h-148v-232h153z" />
    <glyph glyph-name="C" unicode="C" horiz-adv-x="720" 
d="M400 -9q-72 0 -136 26t-111 72.5t-74.5 110.5t-27.5 140t27.5 140t74.5 110t111 72t136 26q182 0 272 -135l-81 -58q-29 45 -76.5 71.5t-114.5 26.5q-53 0 -97 -19t-76 -53t-50 -80.5t-18 -100.5t18 -100.5t50 -80.5t76 -53.5t97 -19.5q71 0 119.5 29t81.5 78l81 -57
q-45 -68 -115.5 -106.5t-166.5 -38.5z" />
    <glyph glyph-name="D" unicode="D" horiz-adv-x="682" 
d="M82 680h187q82 0 149 -24.5t114.5 -69t73.5 -107t26 -139.5q0 -76 -26 -139t-73.5 -107.5t-114.5 -69t-149 -24.5h-187v680zM262 93q66 0 115 18t81.5 51t48 78.5t15.5 99.5t-15.5 99.5t-48 78.5t-81.5 51t-115 18h-74v-494h74z" />
    <glyph glyph-name="E" unicode="E" horiz-adv-x="587" 
d="M82 680h432v-93h-326v-264h289v-91h-289v-139h340v-93h-446v680z" />
    <glyph glyph-name="F" unicode="F" horiz-adv-x="555" 
d="M82 680h423v-93h-317v-273h288v-94h-288v-220h-106v680z" />
    <glyph glyph-name="G" unicode="G" horiz-adv-x="741" 
d="M413 -9q-79 0 -145.5 26t-114.5 72.5t-75 110.5t-27 140t26 140t72.5 110t110.5 72t140 26q78 0 138.5 -22t102.5 -69l-71 -71q-29 31 -69 49t-101 18q-53 0 -97.5 -19t-76.5 -53t-49.5 -80.5t-17.5 -100.5t18 -100.5t51 -80.5t80 -53.5t105 -19.5q53 0 96 12t72 32v120
h-183v93h280v-265q-16 -15 -42 -30.5t-59.5 -28t-74.5 -20.5t-89 -8z" />
    <glyph glyph-name="H" unicode="H" horiz-adv-x="703" 
d="M82 680h106v-366h327v366h106v-680h-106v220h-327v-220h-106v680z" />
    <glyph glyph-name="I" unicode="I" horiz-adv-x="276" 
d="M86 680h105v-680h-105v680z" />
    <glyph glyph-name="J" unicode="J" horiz-adv-x="489" 
d="M216 -9q-76 0 -122.5 34t-70.5 81l86 53q18 -32 41 -52.5t61 -20.5q43 0 68.5 23t25.5 83v488h106v-490q0 -51 -14.5 -88t-40.5 -62t-61.5 -37t-78.5 -12z" />
    <glyph glyph-name="K" unicode="K" horiz-adv-x="627" 
d="M180 300q11 23 25 49t27 43l220 288h120l-241 -318l268 -362h-128l-210 284l-73 -89v-195h-106v680h106v-280q0 -23 -2.5 -51t-5.5 -49z" />
    <glyph glyph-name="L" unicode="L" horiz-adv-x="544" 
d="M82 680h106v-587h314v-93h-420v680z" />
    <glyph glyph-name="M" unicode="M" horiz-adv-x="833" 
d="M82 687h11l325 -380l322 380h11v-687h-101v353q0 14 0.5 31t1.5 32l2 35l-20 -29q-9 -14 -19.5 -27.5t-21.5 -25.5l-171 -206h-12l-171 206q-10 12 -20.5 26l-19.5 27l-20 29l2 -35q1 -16 1.5 -32.5t0.5 -30.5v-353h-101v687z" />
    <glyph glyph-name="N" unicode="N" horiz-adv-x="707" 
d="M237 397l-21.5 24t-20.5 25l-22 27l4 -33l2 -32.5t1 -32.5v-375h-98v687h14l375 -403l21 -24l20 -24l22 -28q-2 17 -3 35q-2 16 -3 32.5t-1 30.5v374h98v-687h-13z" />
    <glyph glyph-name="O" unicode="O" horiz-adv-x="803" 
d="M402 -9q-73 0 -137 26t-111.5 72.5t-75 110.5t-27.5 140t27.5 140t75 110.5t111.5 72.5t137 26t136.5 -26t111 -72.5t75 -110.5t27.5 -140t-27.5 -140t-75 -110.5t-111 -72.5t-136.5 -26zM402 86q53 0 97.5 19.5t76.5 53.5t50 80.5t18 100.5t-18 100.5t-50 80.5
t-76.5 53.5t-97.5 19.5t-97.5 -19.5t-77 -53.5t-50.5 -80.5t-18 -100.5t18 -100.5t50.5 -80.5t77 -53.5t97.5 -19.5z" />
    <glyph glyph-name="P" unicode="P" horiz-adv-x="592" 
d="M82 680h171q71 0 125 -18t91.5 -52t56.5 -82t19 -107t-19.5 -107t-56.5 -81.5t-91.5 -52t-124.5 -18.5h-65v-162h-106v680zM249 255q101 0 144.5 44.5t43.5 121.5t-44 121.5t-144 44.5h-61v-332h61z" />
    <glyph glyph-name="Q" unicode="Q" horiz-adv-x="802" 
d="M752 -17l-70 -59l-102 113q-80 -46 -178 -46q-73 0 -137 26t-111.5 72.5t-75 110.5t-27.5 140t27.5 140t75 110.5t111.5 72.5t137 26t136.5 -26t111 -72.5t75 -110.5t27.5 -140q0 -75 -26.5 -138t-72.5 -109zM420 215l71 59l96 -107q57 68 57 173q0 54 -18 100.5
t-50 80.5t-76.5 53.5t-97.5 19.5t-97.5 -19.5t-77 -53.5t-50.5 -80.5t-18 -100.5t18 -100.5t50.5 -80.5t77 -53.5t97.5 -19.5q32 0 60 6.5t52 17.5z" />
    <glyph glyph-name="R" unicode="R" horiz-adv-x="605" 
d="M553 0h-122l-122 179q-14 -2 -28.5 -3t-28.5 -1h-64v-175h-106v680h170q71 0 125.5 -17.5t91.5 -50.5t56.5 -80t19.5 -106q0 -156 -136 -216zM248 266q101 0 145 42t44 118q0 77 -44.5 119t-144.5 42h-60v-321h60z" />
    <glyph glyph-name="S" unicode="S" horiz-adv-x="533" 
d="M266 -9q-48 0 -87 11t-69.5 30.5t-52.5 45t-36 54.5l87 48q12 -20 26 -37.5t32.5 -30t42.5 -20t55 -7.5q52 0 85 25.5t33 67.5q0 44 -29 68.5t-85 49.5l-45 20q-37 17 -66.5 35t-50 41.5t-31.5 53.5t-11 69q0 38 14 69.5t39 54.5t60.5 36t77.5 13q68 0 114.5 -26
t77.5 -81l-83 -51q-20 34 -44.5 50t-64.5 16q-41 0 -64.5 -22t-23.5 -57q0 -38 23 -59.5t75 -44.5l44 -20q44 -19 77 -39.5t55.5 -45.5t34 -56.5t11.5 -72.5q0 -45 -16.5 -80t-46 -59t-70 -36.5t-88.5 -12.5z" />
    <glyph glyph-name="T" unicode="T" horiz-adv-x="573" 
d="M234 587h-202v93h509v-93h-202v-587h-105v587z" />
    <glyph glyph-name="U" unicode="U" horiz-adv-x="674" 
d="M337 -9q-55 0 -102.5 15.5t-82.5 46.5t-54.5 77.5t-19.5 108.5v441h106v-435q0 -83 39 -121t114 -38t114.5 38t39.5 121v435h105v-441q0 -62 -20 -108.5t-54.5 -77.5t-82 -46.5t-102.5 -15.5z" />
    <glyph glyph-name="V" unicode="V" horiz-adv-x="659" 
d="M29 680h113l153 -365q8 -17 15 -38l13 -39q7 -22 13 -44l12 43q6 20 13 40.5t15 37.5l151 365h103l-290 -687h-13z" />
    <glyph glyph-name="W" unicode="W" horiz-adv-x="955" 
d="M29 680h111l120 -362q5 -14 9.5 -31l8.5 -32l8 -34q5 17 11 34l10.5 32t11.5 31l156 369h13l157 -369q6 -14 11.5 -31l10.5 -32l10 -34q4 17 9 34l8.5 32.5t9.5 30.5l120 362h103l-235 -687h-13l-169 405q-5 12 -10 26.5t-9 27.5q-5 15 -9 29l-10 -29q-4 -14 -9.5 -28
l-10.5 -26l-173 -405h-13z" />
    <glyph glyph-name="X" unicode="X" horiz-adv-x="647" 
d="M263 372l-191 308h117l103 -166q6 -10 12 -22l11 -22l10 -25q4 12 10 24q4 12 9.5 23.5t11.5 21.5l101 166h114l-188 -308l230 -372h-117l-141 228q-6 10 -12 22t-11 23q-6 12 -11 25q-4 -12 -10 -24q-4 -12 -10 -23.5l-12 -22.5l-140 -228h-114z" />
    <glyph glyph-name="Y" unicode="Y" horiz-adv-x="668" 
d="M287 215l-258 465h117l154 -280q8 -14 15.5 -31t12.5 -32q7 -18 13 -35q6 17 13 35q6 16 13 32.5t15 30.5l149 280h109l-247 -459v-221h-106v215z" />
    <glyph glyph-name="Z" unicode="Z" horiz-adv-x="586" 
d="M33 11l344 576h-289v93h454v-11l-342 -576h335v-93h-502v11z" />
    <glyph glyph-name="bracketleft" unicode="[" horiz-adv-x="320" 
d="M68 722h219v-86h-117v-678h117v-86h-219v850z" />
    <glyph glyph-name="backslash" unicode="\" horiz-adv-x="416" 
d="M26 722h100l290 -850h-100z" />
    <glyph glyph-name="bracketright" unicode="]" horiz-adv-x="321" 
d="M33 -42h118v678h-118v86h220v-850h-220v86z" />
    <glyph glyph-name="asciicircum" unicode="^" horiz-adv-x="427" 
d="M209 687h10l147 -232h-82l-70 99l-71 -99h-82z" />
    <glyph glyph-name="underscore" unicode="_" horiz-adv-x="269" 
d="M-2 -38h273v-90h-273v90z" />
    <glyph glyph-name="grave" unicode="`" horiz-adv-x="500" 
d="M113 689h116l60 -190h-78z" />
    <glyph glyph-name="a" unicode="a" horiz-adv-x="479" 
d="M318 250q0 51 -21.5 73t-62.5 22q-42 0 -67.5 -15t-42.5 -35l-58 59q28 33 68.5 54t107.5 21q38 0 70.5 -11t56 -33t37 -56t13.5 -81v-248h-101l3 60q-23 -34 -54 -51.5t-78 -17.5q-31 0 -58.5 7.5t-48 23.5t-32.5 41.5t-12 60.5q0 33 12.5 56.5t34.5 39t52 23t66 7.5
h115zM210 180q-33 0 -53 -12.5t-20 -40.5q0 -55 80 -55q45 0 73 20t28 55v33h-108z" />
    <glyph glyph-name="b" unicode="b" horiz-adv-x="551" 
d="M310 -9q-53 0 -90 23.5t-57 61.5l3 -76h-102v722h102v-375q21 36 56.5 59t89.5 23q41 0 76.5 -16t62 -45t41.5 -69t15 -88t-15.5 -88t-42 -69.5t-62.5 -46t-77 -16.5zM284 80q55 0 87 35.5t32 95.5q0 57 -32 92.5t-87 35.5q-56 0 -89 -35.5t-33 -92.5q0 -60 33 -95.5
t89 -35.5z" />
    <glyph glyph-name="c" unicode="c" horiz-adv-x="471" 
d="M267 -9q-48 0 -89 16.5t-71 46t-47 69.5t-17 87t17 87t47 69.5t71 46t89 16.5q60 0 100 -21t70 -59l-72 -58q-15 22 -40.5 35.5t-57.5 13.5q-57 0 -88.5 -36.5t-31.5 -93.5t31.5 -93.5t88.5 -36.5q38 0 62 13.5t41 33.5l69 -60q-31 -35 -71 -55.5t-101 -20.5z" />
    <glyph glyph-name="d" unicode="d" horiz-adv-x="551" 
d="M241 -9q-41 0 -77 16.5t-62.5 46t-42 69.5t-15.5 88t15.5 88t42 69t62 45t75.5 16q56 0 90.5 -23t55.5 -59v375h102v-722h-102l3 76q-20 -38 -57 -61.5t-90 -23.5zM267 80q56 0 89 35.5t33 95.5q0 57 -33 92.5t-89 35.5q-55 0 -87 -35.5t-32 -92.5q0 -60 32 -95.5
t87 -35.5z" />
    <glyph glyph-name="e" unicode="e" horiz-adv-x="527" 
d="M146 176q9 -46 42 -73t91 -27q42 0 71.5 14t47.5 31l59 -62q-29 -29 -71.5 -48.5t-105.5 -19.5q-54 0 -98 16.5t-74.5 46t-47.5 69.5t-17 87t17.5 87t47.5 69.5t71 46t88 16.5q54 0 95.5 -19t69.5 -52.5t41.5 -80t10.5 -101.5h-338zM382 246q-7 43 -34 71t-80 28
q-49 0 -81 -25.5t-41 -73.5h236z" />
    <glyph glyph-name="f" unicode="f" horiz-adv-x="348" 
d="M102 335h-69v85h69v166q0 76 35 112.5t100 36.5q42 0 70.5 -13.5t48.5 -38.5l-60 -64q-9 11 -20 18t-29 7q-20 0 -32 -12.5t-12 -44.5v-167h113v-85h-113v-335h-101v335z" />
    <glyph glyph-name="g" unicode="g" horiz-adv-x="482" 
d="M458 420v-74h-72q24 -28 24 -68q0 -33 -12 -61.5t-34.5 -48.5t-54 -31.5t-69.5 -11.5q-52 0 -87 19q-22 -13 -22 -36q0 -33 49 -36l105 -7q88 -5 133.5 -38.5t45.5 -96.5q0 -68 -56.5 -110t-171.5 -42q-107 0 -163.5 37.5t-56.5 100.5q0 38 24.5 62.5t64.5 37.5
q-55 25 -55 82q0 27 15 47.5t42 32.5q-41 41 -41 100q0 33 12.5 60.5t35.5 48t55 31.5t71 11q34 0 61 -9h157zM238 200q39 0 60.5 21.5t21.5 56.5q0 34 -21.5 54.5t-60.5 20.5t-60 -20.5t-21 -54.5q0 -35 21 -56.5t60 -21.5zM149 -15q-34 -20 -34 -58q0 -34 28.5 -53
t92.5 -19q65 0 94.5 18.5t29.5 50.5q0 26 -19.5 37.5t-74.5 15.5z" />
    <glyph glyph-name="h" unicode="h" horiz-adv-x="522" 
d="M64 722h101v-376q20 39 56 61t84 22q70 0 113.5 -47t43.5 -133v-249h-101v241q0 45 -21 70t-66 25q-50 0 -79.5 -28.5t-29.5 -79.5v-228h-101v722z" />
    <glyph glyph-name="i" unicode="i" horiz-adv-x="236" 
d="M118 516q-27 0 -47 18.5t-20 48.5q0 29 20 47.5t47 18.5t47 -18.5t20 -47.5q0 -30 -20 -48.5t-47 -18.5zM67 420h102v-420h-102v420z" />
    <glyph glyph-name="j" unicode="j" horiz-adv-x="235" 
d="M118 516q-27 0 -47 18.5t-20 48.5q0 29 20 47.5t47 18.5t47 -18.5t20 -47.5q0 -30 -20 -48.5t-47 -18.5zM38 -222q-36 0 -62.5 14.5t-40.5 31.5l51 64q9 -8 19 -13.5t23 -5.5q19 0 29 9.5t10 35.5v506h102v-503q0 -68 -34.5 -103.5t-96.5 -35.5z" />
    <glyph glyph-name="k" unicode="k" horiz-adv-x="478" 
d="M165 0h-101v722h101v-417q0 -20 -1.5 -38.5t-3.5 -35.5l168 189h115l-155 -175l176 -245h-119l-127 179l-53 -55v-124z" />
    <glyph glyph-name="l" unicode="l" horiz-adv-x="237" 
d="M68 722h101v-722h-101v722z" />
    <glyph glyph-name="m" unicode="m" horiz-adv-x="773" 
d="M64 420h101l-2 -72q43 81 125 81q46 0 76 -21t47 -59q25 38 61.5 59t82.5 21q75 0 116.5 -46t41.5 -127v-256h-101v246q0 44 -17.5 67t-61.5 23q-45 0 -69.5 -26.5t-24.5 -79.5v-230h-101v246q0 44 -17 67t-61 23q-45 0 -70 -26.5t-25 -79.5v-230h-101v420z" />
    <glyph glyph-name="n" unicode="n" horiz-adv-x="522" 
d="M64 420h101l-2 -78q20 42 57 64.5t85 22.5q70 0 113.5 -47t43.5 -133v-249h-101v241q0 45 -21 70t-66 25q-50 0 -79.5 -28.5t-29.5 -79.5v-228h-101v420z" />
    <glyph glyph-name="o" unicode="o" horiz-adv-x="539" 
d="M270 -9q-48 0 -89 16.5t-72 46t-48.5 69.5t-17.5 87t17.5 87t48.5 69.5t72 46t89 16.5t89.5 -16.5t71.5 -46t47.5 -69.5t17.5 -87t-17.5 -87t-47.5 -69.5t-71.5 -46t-89.5 -16.5zM270 78q57 0 89.5 37t32.5 95t-32.5 94.5t-89.5 36.5t-90 -36.5t-33 -94.5t33 -95t90 -37z
" />
    <glyph glyph-name="p" unicode="p" horiz-adv-x="551" 
d="M64 420h102l-3 -78q20 39 57.5 63t91.5 24q41 0 76.5 -16t61.5 -45t41.5 -69t15.5 -88t-15.5 -88t-42 -69.5t-62.5 -46t-77 -16.5q-53 0 -89.5 23t-54.5 58v-284h-102v632zM284 80q55 0 87 35.5t32 95.5q0 57 -32 92.5t-87 35.5q-56 0 -89 -35.5t-33 -92.5
q0 -60 33 -95.5t89 -35.5z" />
    <glyph glyph-name="q" unicode="q" horiz-adv-x="551" 
d="M386 72q-19 -35 -55.5 -58t-89.5 -23q-41 0 -77 16.5t-62.5 46t-42 69.5t-15.5 88t15.5 88t42 69t62 45t75.5 16q56 0 93 -24.5t57 -62.5l-3 78h101v-632h-101v284zM267 80q56 0 89 35.5t33 95.5q0 57 -33 92.5t-89 35.5q-55 0 -87 -35.5t-32 -92.5q0 -60 32 -95.5
t87 -35.5z" />
    <glyph glyph-name="r" unicode="r" horiz-adv-x="373" 
d="M64 420h101l-1 -79q21 50 54 68.5t68 18.5q23 0 39 -5t30 -13l-34 -91q-12 6 -25 10t-30 4q-45 0 -73 -29t-28 -100v-204h-101v420z" />
    <glyph glyph-name="s" unicode="s" horiz-adv-x="415" 
d="M214 -9q-72 0 -119.5 26.5t-68.5 60.5l69 48q20 -28 48.5 -41t64.5 -13q38 0 56 12t18 33q0 26 -24.5 35t-77.5 24q-23 6 -45.5 15.5t-40 24.5t-28 36.5t-10.5 52.5q0 32 12 55t32 38.5t47.5 23t58.5 7.5q51 0 86.5 -18.5t59.5 -44.5l-59 -58q-15 17 -36.5 29t-50.5 12
q-59 0 -59 -39q0 -24 21 -33.5t71 -22.5q25 -6 49.5 -15t44 -24t32 -37.5t12.5 -55.5q0 -27 -8.5 -51t-28 -41.5t-50.5 -28t-76 -10.5z" />
    <glyph glyph-name="t" unicode="t" horiz-adv-x="358" 
d="M229 -10q-59 0 -96 34t-37 118v193h-63v85h63v219h101v-219h112v-85h-112v-195q0 -36 11 -49t31 -13q18 0 30 6.5t20 13.5l48 -68q-16 -15 -41.5 -27.5t-66.5 -12.5z" />
    <glyph glyph-name="u" unicode="u" horiz-adv-x="520" 
d="M216 -9q-69 0 -112.5 46.5t-43.5 132.5v250h101v-242q0 -45 21 -70t66 -25q50 0 78.5 29t28.5 80v228h101v-420h-101l2 77q-20 -41 -56.5 -63.5t-84.5 -22.5z" />
    <glyph glyph-name="v" unicode="v" horiz-adv-x="475" 
d="M17 420h112l85 -186q6 -13 11.5 -29t9.5 -30l8 -32l8 32l8.5 30.5t10.5 28.5l85 186h103l-213 -429h-13z" />
    <glyph glyph-name="w" unicode="w" horiz-adv-x="685" 
d="M17 420h112l67 -172q5 -12 9 -26t8 -25l8 -28q4 14 9 28q4 13 9 26t11 25l90 180h10l93 -188q6 -11 11 -25t10 -26q5 -14 9 -28l8 28l8 26t9 25l69 180h101l-184 -430h-11l-104 204q-5 10 -9.5 22.5t-7.5 23.5q-4 12 -7 25l-8 -25t-8.5 -24t-9.5 -22l-108 -204h-11z" />
    <glyph glyph-name="x" unicode="x" horiz-adv-x="492" 
d="M188 221l-143 199h120l57 -81q5 -8 10 -17t8 -16q4 -10 8 -19q3 9 7 18q3 9 7.5 17.5t10.5 16.5l60 81h111l-140 -191l164 -229h-120l-75 105q-6 8 -11.5 18t-9.5 19q-6 11 -10 21q-4 -10 -9 -21q-4 -9 -9.5 -19t-11.5 -18l-77 -105h-111z" />
    <glyph glyph-name="y" unicode="y" horiz-adv-x="476" 
d="M189 38l-172 382h112l88 -210q5 -12 9.5 -27t7.5 -28q4 -16 7 -32l6 32q3 14 7.5 28.5t9.5 26.5l90 210h105l-275 -632h-104z" />
    <glyph glyph-name="z" unicode="z" horiz-adv-x="429" 
d="M28 11l216 327h-192v82h347v-11l-217 -327h206v-82h-360v11z" />
    <glyph glyph-name="braceleft" unicode="{" horiz-adv-x="390" 
d="M286 -128q-28 0 -54 6.5t-46 22.5t-32.5 44t-12.5 71v144q0 38 -14.5 52.5t-43.5 14.5h-57v87h57q29 0 43.5 15t14.5 53v196q0 43 12.5 71t32.5 44t46 22.5t54 6.5h71v-86h-63q-26 0 -38.5 -13.5t-12.5 -47.5v-206q0 -50 -22 -71t-56 -27q34 -7 56 -28t22 -71v-153
q0 -34 12.5 -47.5t38.5 -13.5h63v-86h-71z" />
    <glyph glyph-name="bar" unicode="|" horiz-adv-x="257" 
d="M80 722h97v-850h-97v850z" />
    <glyph glyph-name="braceright" unicode="}" horiz-adv-x="390" 
d="M33 -42h63q26 0 38 13.5t12 47.5v153q0 51 22.5 71.5t56.5 26.5q-34 7 -56.5 28t-22.5 72v205q0 34 -12 47.5t-38 13.5h-63v86h71q27 0 53 -6.5t46.5 -22.5t32.5 -44t12 -71v-196q0 -38 15 -53t44 -15h57v-87h-57q-29 0 -44 -14.5t-15 -52.5v-144q0 -43 -12 -71
t-32.5 -44t-46.5 -22.5t-53 -6.5h-71v86z" />
    <glyph glyph-name="asciitilde" unicode="~" horiz-adv-x="400" 
d="M42 222q3 62 30.5 93.5t67.5 31.5q21 0 36.5 -8t29.5 -19q18 -14 28 -20t21 -6q28 0 32 52l71 -7q-3 -63 -29.5 -94t-68.5 -31q-20 0 -36 8t-30 19q-18 14 -27 20t-21 6q-29 0 -33 -52z" />
    <glyph glyph-name="nonbreakingspace" unicode="&#xa0;" horiz-adv-x="500" 
 />
    <glyph glyph-name="exclamdown" unicode="&#xa1;" horiz-adv-x="268" 
d="M134 544q-29 0 -50 20t-21 51t21 51t50 20t50 -20t21 -51t-21 -51t-50 -20zM94 466h80l17 -466h-114z" />
    <glyph glyph-name="cent" unicode="&#xa2;" horiz-adv-x="475" 
d="M237 -7q-42 5 -77.5 23.5t-61.5 47t-40.5 66t-14.5 80.5t14.5 80.5t40 66t61.5 47t78 23.5v108h55v-107q49 -4 84.5 -24t63.5 -55l-71 -57q-12 18 -31.5 30.5t-45.5 17.5v-261q28 4 47 17t35 30l67 -59q-28 -32 -63 -51.5t-86 -23.5v-108h-55v109zM237 339
q-43 -10 -67.5 -44.5t-24.5 -84.5t24.5 -85t67.5 -45v259z" />
    <glyph glyph-name="sterling" unicode="&#xa3;" horiz-adv-x="562" 
d="M73 253v79h61q-11 27 -18 54t-7 54q0 38 14 70.5t40 56.5t63.5 37.5t85.5 13.5q70 0 118.5 -31.5t74.5 -84.5l-84 -49q-19 38 -43 56t-66 18q-45 0 -72.5 -23.5t-27.5 -68.5q0 -26 6.5 -51.5t16.5 -51.5h160v-79h-129q11 -30 18 -61.5t7 -65.5v-9q24 -15 49 -26t53 -11
q29 0 49 11t37 30l61 -61q-25 -32 -60.5 -50.5t-82.5 -18.5q-44 0 -77.5 16t-61.5 38q-21 -24 -51.5 -39t-65.5 -15q-54 0 -85.5 28t-31.5 73q0 44 30 69t75 25q19 0 36 -4t33 -11q-5 20 -12.5 41t-16.5 41h-96zM200 94q-16 12 -31 20t-30 8q-18 0 -28.5 -9t-10.5 -24
t10.5 -24.5t29.5 -9.5q20 0 36 11t24 28z" />
    <glyph glyph-name="currency" unicode="&#xa4;" horiz-adv-x="610" 
d="M33 283v72h81q15 38 39.5 68.5t57 52t71 33.5t80.5 12q68 0 116 -22t85 -70l-71 -59q-24 32 -54.5 48t-75.5 16q-48 0 -84 -20.5t-57 -58.5h174v-72h-196q-1 -6 -1 -12.5v-13.5t0.5 -13.5t0.5 -13.5h196v-72h-173q21 -38 57 -58.5t83 -20.5q51 0 82 19t52 51l76 -55
q-36 -54 -86 -78.5t-124 -24.5q-42 0 -80.5 12t-70.5 34t-56.5 53t-39.5 68h-82v72h65q-1 7 -1 13.5v13.5v13.5t1 12.5h-65z" />
    <glyph glyph-name="yen" unicode="&#xa5;" horiz-adv-x="565" 
d="M33 513h113l107 -195q7 -14 13 -28.5l11 -27.5q5 -15 9 -29q4 14 10 29q5 14 11 28t13 28l107 195h105l-39 -67l-39.5 -67.5l-41.5 -71.5h99v-72h-140l-36 -61h176v-72h-177v-102h-104v102h-177v72h175l-35 61h-140v72h99z" />
    <glyph glyph-name="brokenbar" unicode="&#xa6;" 
d="M111 181q-28 0 -48.5 19.5t-20.5 50.5q0 30 20.5 49t48.5 19q27 0 47.5 -19t20.5 -49q0 -31 -20.5 -50.5t-47.5 -19.5z" />
    <glyph glyph-name="section" unicode="&#xa7;" horiz-adv-x="509" 
d="M115 392q-24 37 -24 82q0 32 12.5 58.5t34.5 45.5t52 29.5t65 10.5q66 0 105 -26.5t63 -74.5l-81 -39q-13 25 -31.5 41.5t-51.5 16.5q-35 0 -53 -16.5t-18 -42.5q0 -24 12 -40t42 -27l101 -39q70 -26 103 -62t33 -85q0 -42 -23 -69t-59 -43q24 -32 24 -78q0 -63 -45 -100
t-128 -37q-71 0 -121 31.5t-70 75.5l81 42q14 -29 39 -47.5t67 -18.5q36 0 56 15t20 38q0 22 -14.5 35.5t-46.5 26.5l-91 35q-72 27 -105 62.5t-33 89.5q0 40 24 68t61 42zM348 156q37 15 37 51q0 26 -15 43t-55 32l-100 39q-16 6 -30.5 13.5t-26.5 16.5q-33 -17 -33 -54
q0 -27 14.5 -44.5t52.5 -32.5l93 -35l33 -14t30 -15z" />
    <glyph glyph-name="dieresis" unicode="&#xa8;" horiz-adv-x="500" 
d="M347 511q-23 0 -41.5 17.5t-18.5 43.5q0 25 18.5 42.5t41.5 17.5q24 0 42.5 -17.5t18.5 -42.5q0 -26 -18.5 -43.5t-42.5 -17.5zM153 511q-24 0 -42.5 17.5t-18.5 43.5q0 25 18.5 42.5t42.5 17.5t42 -17.5t18 -42.5q0 -26 -18 -43.5t-42 -17.5z" />
    <glyph glyph-name="copyright" unicode="&#xa9;" horiz-adv-x="596" 
d="M299 -6q-53 0 -101 20t-84.5 55t-58 83t-21.5 105t21.5 105.5t58 84t84.5 55t101 19.5t101 -19.5t84 -55t57 -84t21 -105.5t-21 -105t-57 -83t-84 -55t-101 -20zM299 43q44 0 82.5 15.5t67 44t45 67.5t16.5 87t-16.5 87.5t-45 68t-67 44t-82.5 15.5t-83 -15.5t-68 -44
t-45.5 -68t-16.5 -87.5t16.5 -87t45.5 -67.5t68 -44t83 -15.5zM303 109q-32 0 -59.5 11t-47.5 31t-31.5 47t-11.5 59q0 33 11.5 60.5t31 47.5t47 31t58.5 11q43 0 71 -15.5t48 -37.5l-56 -51q-22 28 -57 28q-31 0 -48.5 -20.5t-17.5 -53.5q0 -31 18 -52t49 -21q22 0 36 9
t22 20l56 -50q-18 -22 -46.5 -38t-72.5 -16z" />
    <glyph glyph-name="ordfeminine" unicode="&#xaa;" horiz-adv-x="415" 
d="M272 370q-1 43 -19 59t-50 16q-37 0 -57.5 -14t-34.5 -28l-56 51q22 26 58 46.5t99 20.5q32 0 59.5 -8.5t48.5 -27.5t33 -48t12 -70v-209h-93l2 45q-17 -25 -44.5 -39.5t-63.5 -14.5q-27 0 -51 7t-41.5 20.5t-28 34.5t-10.5 49t11 49t30.5 34.5t45.5 20t56 6.5h94z
M187 307q-28 0 -44 -9.5t-16 -31.5q0 -44 62 -44q38 0 60.5 16.5t22.5 45.5v23h-85z" />
    <glyph glyph-name="guillemotleft" unicode="&#xab;" horiz-adv-x="449" 
d="M219 198v8l95 161h100l-97 -165l97 -167h-100zM35 198v8l94 161h101l-97 -165l97 -167h-101z" />
    <glyph glyph-name="logicalnot" unicode="&#xac;" 
d="M111 181q-28 0 -48.5 19.5t-20.5 50.5q0 30 20.5 49t48.5 19q27 0 47.5 -19t20.5 -49q0 -31 -20.5 -50.5t-47.5 -19.5z" />
    <glyph glyph-name="registered" unicode="&#xae;" horiz-adv-x="510" 
d="M254 259q-45 0 -85 16t-70 45t-47.5 68.5t-17.5 86.5t17.5 87t47.5 69t70 45t85 16q46 0 86.5 -16t70.5 -45t47.5 -69t17.5 -87t-17.5 -86.5t-47.5 -68.5t-70.5 -45t-86.5 -16zM254 300q38 0 70 12.5t55.5 35t37 54.5t13.5 72q0 41 -13.5 73.5t-37 55.5t-55.5 35t-70 12
q-37 0 -69 -12t-55 -35t-36 -55.5t-13 -73.5q0 -40 13 -72t36 -54.5t55 -35t69 -12.5zM354 363h-58l-33 56h-5h-30v-56h-55v227h83q48 0 72.5 -26t24.5 -59q0 -23 -10.5 -42.5t-30.5 -31.5zM257 462q19 0 30.5 9.5t11.5 31.5q0 19 -11.5 29.5t-30.5 10.5h-29v-81h29z" />
    <glyph glyph-name="macron" unicode="&#xaf;" horiz-adv-x="500" 
d="M137 603h226v-76h-226v76z" />
    <glyph glyph-name="degree" unicode="&#xb0;" horiz-adv-x="328" 
d="M164 277q-26 0 -49.5 9.5t-41 26t-27.5 39t-10 47.5q0 26 10 48.5t27.5 39t41 25.5t49.5 9q27 0 50 -9t40.5 -25.5t27.5 -39t10 -48.5q0 -25 -10 -47.5t-27.5 -39t-40.5 -26t-50 -9.5zM164 340q26 0 42 16.5t16 42.5q0 27 -16 43.5t-42 16.5t-41.5 -16.5t-15.5 -43.5
q0 -26 15.5 -42.5t41.5 -16.5z" />
    <glyph glyph-name="plusminus" unicode="&#xb1;" horiz-adv-x="815" 
d="M102 335h-69v85h69v146q0 76 34.5 112.5t97.5 36.5q69 0 109 -44l-54 -65q-7 7 -16.5 12.5t-26.5 5.5q-19 0 -31 -12.5t-12 -44.5v-147h170v125q0 47 15 82.5t40.5 59.5t59.5 36t72 12t71.5 -11t59 -34t40.5 -57t15 -81v-552h-101v546q0 54 -24.5 76t-60.5 22
q-37 0 -61 -22.5t-24 -75.5v-126h102v-85h-102v-335h-102v335h-170v-335h-101v335z" />
    <glyph glyph-name="twosuperior" unicode="&#xb2;" 
d="M111 181q-28 0 -48.5 19.5t-20.5 50.5q0 30 20.5 49t48.5 19q27 0 47.5 -19t20.5 -49q0 -31 -20.5 -50.5t-47.5 -19.5z" />
    <glyph glyph-name="threesuperior" unicode="&#xb3;" 
d="M111 181q-28 0 -48.5 19.5t-20.5 50.5q0 30 20.5 49t48.5 19q27 0 47.5 -19t20.5 -49q0 -31 -20.5 -50.5t-47.5 -19.5z" />
    <glyph glyph-name="acute" unicode="&#xb4;" horiz-adv-x="500" 
d="M271 689h116l-98 -190h-78z" />
    <glyph glyph-name="mu" unicode="&#xb5;" 
d="M111 181q-28 0 -48.5 19.5t-20.5 50.5q0 30 20.5 49t48.5 19q27 0 47.5 -19t20.5 -49q0 -31 -20.5 -50.5t-47.5 -19.5z" />
    <glyph glyph-name="paragraph" unicode="&#xb6;" horiz-adv-x="665" 
d="M309 274h-50q-52 0 -92.5 16t-68.5 43.5t-42 64t-14 77.5t14 78t42 65t68.5 45t92.5 17h324v-680h-100v591h-73v-591h-101v274zM309 363v228h-47q-48 0 -78.5 -29t-30.5 -85t30.5 -85t78.5 -29h47z" />
    <glyph glyph-name="periodcentered" unicode="&#xb7;" horiz-adv-x="223" 
d="M112 181q-28 0 -48.5 19.5t-20.5 50.5q0 30 20.5 49t48.5 19q27 0 47.5 -19t20.5 -49q0 -31 -20.5 -50.5t-47.5 -19.5z" />
    <glyph glyph-name="cedilla" unicode="&#xb8;" horiz-adv-x="500" 
d="M258 -236q-43 0 -69.5 17.5t-40.5 42.5l52 31q7 -14 18.5 -23.5t31.5 -9.5q17 0 29.5 10t12.5 30q0 19 -13 30.5t-36 11.5h-27v96h57v-46q34 -6 60 -30t26 -67q0 -22 -8.5 -39.5t-23 -29.5t-32.5 -18t-37 -6z" />
    <glyph glyph-name="onesuperior" unicode="&#xb9;" 
d="M111 181q-28 0 -48.5 19.5t-20.5 50.5q0 30 20.5 49t48.5 19q27 0 47.5 -19t20.5 -49q0 -31 -20.5 -50.5t-47.5 -19.5z" />
    <glyph glyph-name="ordmasculine" unicode="&#xba;" horiz-adv-x="466" 
d="M233 149q-40 0 -75 14t-61.5 39t-41.5 59t-15 74t15 74t41.5 59t61.5 39t75 14t75 -14t61.5 -39t41.5 -59t15 -74t-15 -74t-41.5 -59t-61.5 -39t-75 -14zM233 227q45 0 71.5 30t26.5 78t-26.5 77.5t-71.5 29.5t-70.5 -29.5t-25.5 -77.5t25.5 -78t70.5 -30z" />
    <glyph glyph-name="guillemotright" unicode="&#xbb;" horiz-adv-x="449" 
d="M316 200l-97 167h101l94 -163v-8l-94 -161h-101zM132 200l-97 167h100l95 -163v-8l-95 -161h-100z" />
    <glyph glyph-name="onequarter" unicode="&#xbc;" 
d="M111 181q-28 0 -48.5 19.5t-20.5 50.5q0 30 20.5 49t48.5 19q27 0 47.5 -19t20.5 -49q0 -31 -20.5 -50.5t-47.5 -19.5z" />
    <glyph glyph-name="onehalf" unicode="&#xbd;" 
d="M111 181q-28 0 -48.5 19.5t-20.5 50.5q0 30 20.5 49t48.5 19q27 0 47.5 -19t20.5 -49q0 -31 -20.5 -50.5t-47.5 -19.5z" />
    <glyph glyph-name="threequarters" unicode="&#xbe;" 
d="M111 181q-28 0 -48.5 19.5t-20.5 50.5q0 30 20.5 49t48.5 19q27 0 47.5 -19t20.5 -49q0 -31 -20.5 -50.5t-47.5 -19.5z" />
    <glyph glyph-name="questiondown" unicode="&#xbf;" horiz-adv-x="483" 
d="M266 544q-29 0 -50 20t-21 51t21 51t50 20q28 0 49.5 -20t21.5 -51t-21.5 -51t-49.5 -20zM251 -9q-50 0 -88 15t-64 41.5t-39.5 62t-13.5 76.5q0 80 42 130.5t128 64.5v92h97v-176h-41q-33 0 -55.5 -9t-37 -24.5t-21 -35.5t-6.5 -42q0 -42 25.5 -73t73.5 -31q47 0 73 20
t46 60l82 -47q-24 -60 -75.5 -92t-125.5 -32z" />
    <glyph glyph-name="Agrave" unicode="&#xc0;" horiz-adv-x="659" 
d="M191 941h116l60 -190h-78zM320 687h12l298 -687h-110l-39 96h-311l-39 -96h-102zM443 185l-85 212l-12.5 32.5t-10.5 33.5q-6 17 -11 35l-10 -35t-11 -34t-12 -32l-85 -212h237z" />
    <glyph glyph-name="Aacute" unicode="&#xc1;" horiz-adv-x="659" 
d="M349 941h116l-98 -190h-78zM320 687h12l298 -687h-110l-39 96h-311l-39 -96h-102zM443 185l-85 212l-12.5 32.5t-10.5 33.5q-6 17 -11 35l-10 -35t-11 -34t-12 -32l-85 -212h237z" />
    <glyph glyph-name="Acircumflex" unicode="&#xc2;" horiz-adv-x="659" 
d="M320 954h11l143 -204h-83l-65 83l-66 -83h-83zM320 687h12l298 -687h-110l-39 96h-311l-39 -96h-102zM443 185l-85 212l-12.5 32.5t-10.5 33.5q-6 17 -11 35l-10 -35t-11 -34t-12 -32l-85 -212h237z" />
    <glyph glyph-name="Atilde" unicode="&#xc3;" horiz-adv-x="659" 
d="M166 755q3 62 30.5 93.5t67.5 31.5q21 0 36.5 -7.5t29.5 -18.5q18 -14 27.5 -20.5t21.5 -6.5q28 0 32 52l71 -7q-3 -62 -29.5 -93.5t-68.5 -31.5q-20 0 -36 8t-30 19l-27 20.5t-21 6.5q-28 0 -33 -53zM320 687h12l298 -687h-110l-39 96h-311l-39 -96h-102zM443 185
l-85 212l-12.5 32.5t-10.5 33.5q-6 17 -11 35l-10 -35t-11 -34t-12 -32l-85 -212h237z" />
    <glyph glyph-name="Adieresis" unicode="&#xc4;" horiz-adv-x="659" 
d="M427 763q-23 0 -41.5 17.5t-18.5 43.5q0 25 18.5 42.5t41.5 17.5q24 0 42.5 -17.5t18.5 -42.5q0 -26 -18.5 -43.5t-42.5 -17.5zM233 763q-24 0 -42.5 17.5t-18.5 43.5q0 25 18.5 42.5t42.5 17.5t42 -17.5t18 -42.5q0 -26 -18 -43.5t-42 -17.5zM320 687h12l298 -687h-110
l-39 96h-311l-39 -96h-102zM443 185l-85 212l-12.5 32.5t-10.5 33.5q-6 17 -11 35l-10 -35t-11 -34t-12 -32l-85 -212h237z" />
    <glyph glyph-name="Aring" unicode="&#xc5;" horiz-adv-x="659" 
d="M330 724q-25 0 -46 8.5t-37 23.5t-25 35t-9 42q0 23 9 43t25 35t37 23.5t46 8.5t46.5 -8.5t37 -23.5t24.5 -35t9 -43q0 -22 -9 -42t-24.5 -35t-37 -23.5t-46.5 -8.5zM320 687h12l298 -687h-110l-39 96h-311l-39 -96h-102zM330 783q21 0 34.5 13.5t13.5 36.5
q0 24 -13.5 37.5t-34.5 13.5t-34.5 -13.5t-13.5 -37.5q0 -23 13.5 -36.5t34.5 -13.5zM443 185l-85 212l-12.5 32.5t-10.5 33.5q-6 17 -11 35l-10 -35t-11 -34t-12 -32l-85 -212h237z" />
    <glyph glyph-name="AE" unicode="&#xc6;" horiz-adv-x="971" 
d="M481 680h417v-93h-326v-264h289v-91h-289v-139h340v-93h-445v96h-270l-64 -96h-112zM467 187v253q0 14 1 30t3 29l4 31q-6 -14 -13 -28l-13.5 -26t-15.5 -26l-174 -263h208z" />
    <glyph glyph-name="Ccedilla" unicode="&#xc7;" horiz-adv-x="727" 
d="M350 -6q-63 9 -118 38t-95 74.5t-63 105t-23 128.5q0 76 27.5 140t74.5 110t111 72t136 26q182 0 272 -135l-81 -58q-29 45 -76.5 71.5t-114.5 26.5q-53 0 -97 -19t-76 -53t-50 -80.5t-18 -100.5t18 -100.5t50 -80.5t76 -53.5t97 -19.5q71 0 119.5 29t81.5 78l81 -57
q-44 -66 -113 -104.5t-162 -40.5v-37q34 -6 60 -30t26 -67q0 -22 -8.5 -39.5t-23 -29.5t-32.5 -18t-37 -6q-43 0 -69.5 17.5t-40.5 42.5l52 31q7 -14 18.5 -23.5t31.5 -9.5q17 0 29.5 10t12.5 30q0 19 -13 30.5t-36 11.5h-27v90z" />
    <glyph glyph-name="Egrave" unicode="&#xc8;" horiz-adv-x="587" 
d="M172 941h116l60 -190h-78zM82 680h432v-93h-326v-264h289v-91h-289v-139h340v-93h-446v680z" />
    <glyph glyph-name="Eacute" unicode="&#xc9;" horiz-adv-x="587" 
d="M318 941h116l-98 -190h-78zM82 680h432v-93h-326v-264h289v-91h-289v-139h340v-93h-446v680z" />
    <glyph glyph-name="Ecircumflex" unicode="&#xca;" horiz-adv-x="587" 
d="M296 954h11l143 -204h-83l-65 83l-66 -83h-83zM82 680h432v-93h-326v-264h289v-91h-289v-139h340v-93h-446v680z" />
    <glyph glyph-name="Edieresis" unicode="&#xcb;" horiz-adv-x="587" 
d="M398 763q-23 0 -41.5 17.5t-18.5 43.5q0 25 18.5 42.5t41.5 17.5q24 0 42.5 -17.5t18.5 -42.5q0 -26 -18.5 -43.5t-42.5 -17.5zM204 763q-24 0 -42.5 17.5t-18.5 43.5q0 25 18.5 42.5t42.5 17.5t42 -17.5t18 -42.5q0 -26 -18 -43.5t-42 -17.5zM82 680h432v-93h-326v-264
h289v-91h-289v-139h340v-93h-446v680z" />
    <glyph glyph-name="Igrave" unicode="&#xcc;" horiz-adv-x="276" 
d="M-1 941h116l60 -190h-78zM86 680h105v-680h-105v680z" />
    <glyph glyph-name="Iacute" unicode="&#xcd;" horiz-adv-x="276" 
d="M160 941h116l-98 -190h-78zM86 680h105v-680h-105v680z" />
    <glyph glyph-name="Icircumflex" unicode="&#xce;" horiz-adv-x="277" 
d="M132 954h11l143 -204h-83l-65 83l-66 -83h-83zM86 680h105v-680h-105v680z" />
    <glyph glyph-name="Idieresis" unicode="&#xcf;" horiz-adv-x="275" 
d="M234 763q-23 0 -41.5 17.5t-18.5 43.5q0 25 18.5 42.5t41.5 17.5q24 0 42.5 -17.5t18.5 -42.5q0 -26 -18.5 -43.5t-42.5 -17.5zM40 763q-24 0 -42.5 17.5t-18.5 43.5q0 25 18.5 42.5t42.5 17.5t42 -17.5t18 -42.5q0 -26 -18 -43.5t-42 -17.5zM86 680h105v-680h-105v680z
" />
    <glyph glyph-name="Eth" unicode="&#xd0;" horiz-adv-x="682" 
d="M82 240h-69v91h69v349h191q81 0 147 -25t113 -70t73 -107.5t26 -137.5t-25.5 -137.5t-73 -107.5t-113.5 -70t-147 -25h-191v240zM267 93q65 0 113 18t79.5 51t47 78.5t15.5 99.5t-15.5 99.5t-47 78.5t-79.5 51t-113 18h-79v-256h167v-91h-167v-147h79z" />
    <glyph glyph-name="Ntilde" unicode="&#xd1;" horiz-adv-x="707" 
d="M195 755q3 62 30.5 93.5t67.5 31.5q21 0 36.5 -7.5t29.5 -18.5q18 -14 27.5 -20.5t21.5 -6.5q28 0 32 52l71 -7q-3 -62 -29.5 -93.5t-68.5 -31.5q-20 0 -36 8t-30 19l-27 20.5t-21 6.5q-28 0 -33 -53zM237 397l-21.5 24t-20.5 25l-22 27l4 -33l2 -32.5t1 -32.5v-375h-98
v687h14l375 -403l21 -24l20 -24l22 -28q-2 17 -3 35q-2 16 -3 32.5t-1 30.5v374h98v-687h-13z" />
    <glyph glyph-name="Ograve" unicode="&#xd2;" horiz-adv-x="803" 
d="M265 941h116l60 -190h-78zM402 -9q-73 0 -137 26t-111.5 72.5t-75 110.5t-27.5 140t27.5 140t75 110.5t111.5 72.5t137 26t136.5 -26t111 -72.5t75 -110.5t27.5 -140t-27.5 -140t-75 -110.5t-111 -72.5t-136.5 -26zM402 86q53 0 97.5 19.5t76.5 53.5t50 80.5t18 100.5
t-18 100.5t-50 80.5t-76.5 53.5t-97.5 19.5t-97.5 -19.5t-77 -53.5t-50.5 -80.5t-18 -100.5t18 -100.5t50.5 -80.5t77 -53.5t97.5 -19.5z" />
    <glyph glyph-name="Oacute" unicode="&#xd3;" horiz-adv-x="803" 
d="M423 941h116l-98 -190h-78zM402 -9q-73 0 -137 26t-111.5 72.5t-75 110.5t-27.5 140t27.5 140t75 110.5t111.5 72.5t137 26t136.5 -26t111 -72.5t75 -110.5t27.5 -140t-27.5 -140t-75 -110.5t-111 -72.5t-136.5 -26zM402 86q53 0 97.5 19.5t76.5 53.5t50 80.5t18 100.5
t-18 100.5t-50 80.5t-76.5 53.5t-97.5 19.5t-97.5 -19.5t-77 -53.5t-50.5 -80.5t-18 -100.5t18 -100.5t50.5 -80.5t77 -53.5t97.5 -19.5z" />
    <glyph glyph-name="Ocircumflex" unicode="&#xd4;" horiz-adv-x="803" 
d="M396 954h11l143 -204h-83l-65 83l-66 -83h-83zM402 -9q-73 0 -137 26t-111.5 72.5t-75 110.5t-27.5 140t27.5 140t75 110.5t111.5 72.5t137 26t136.5 -26t111 -72.5t75 -110.5t27.5 -140t-27.5 -140t-75 -110.5t-111 -72.5t-136.5 -26zM402 86q53 0 97.5 19.5t76.5 53.5
t50 80.5t18 100.5t-18 100.5t-50 80.5t-76.5 53.5t-97.5 19.5t-97.5 -19.5t-77 -53.5t-50.5 -80.5t-18 -100.5t18 -100.5t50.5 -80.5t77 -53.5t97.5 -19.5z" />
    <glyph glyph-name="Otilde" unicode="&#xd5;" horiz-adv-x="803" 
d="M244 755q3 62 30.5 93.5t67.5 31.5q21 0 36.5 -7.5t29.5 -18.5q18 -14 27.5 -20.5t21.5 -6.5q28 0 32 52l71 -7q-3 -62 -29.5 -93.5t-68.5 -31.5q-20 0 -36 8t-30 19l-27 20.5t-21 6.5q-28 0 -33 -53zM402 -9q-73 0 -137 26t-111.5 72.5t-75 110.5t-27.5 140t27.5 140
t75 110.5t111.5 72.5t137 26t136.5 -26t111 -72.5t75 -110.5t27.5 -140t-27.5 -140t-75 -110.5t-111 -72.5t-136.5 -26zM402 86q53 0 97.5 19.5t76.5 53.5t50 80.5t18 100.5t-18 100.5t-50 80.5t-76.5 53.5t-97.5 19.5t-97.5 -19.5t-77 -53.5t-50.5 -80.5t-18 -100.5
t18 -100.5t50.5 -80.5t77 -53.5t97.5 -19.5z" />
    <glyph glyph-name="Odieresis" unicode="&#xd6;" horiz-adv-x="803" 
d="M499 763q-23 0 -41.5 17.5t-18.5 43.5q0 25 18.5 42.5t41.5 17.5q24 0 42.5 -17.5t18.5 -42.5q0 -26 -18.5 -43.5t-42.5 -17.5zM305 763q-24 0 -42.5 17.5t-18.5 43.5q0 25 18.5 42.5t42.5 17.5t42 -17.5t18 -42.5q0 -26 -18 -43.5t-42 -17.5zM402 -9q-73 0 -137 26
t-111.5 72.5t-75 110.5t-27.5 140t27.5 140t75 110.5t111.5 72.5t137 26t136.5 -26t111 -72.5t75 -110.5t27.5 -140t-27.5 -140t-75 -110.5t-111 -72.5t-136.5 -26zM402 86q53 0 97.5 19.5t76.5 53.5t50 80.5t18 100.5t-18 100.5t-50 80.5t-76.5 53.5t-97.5 19.5
t-97.5 -19.5t-77 -53.5t-50.5 -80.5t-18 -100.5t18 -100.5t50.5 -80.5t77 -53.5t97.5 -19.5z" />
    <glyph glyph-name="multiply" unicode="&#xd7;" 
d="M111 181q-28 0 -48.5 19.5t-20.5 50.5q0 30 20.5 49t48.5 19q27 0 47.5 -19t20.5 -49q0 -31 -20.5 -50.5t-47.5 -19.5z" />
    <glyph glyph-name="Oslash" unicode="&#xd8;" horiz-adv-x="801" 
d="M43 48l79 77q-34 44 -53 98t-19 117q0 75 27.5 139t75 110.5t111.5 73t137 26.5q63 0 119 -20t101 -56l78 76l59 -58l-78 -77q33 -43 52 -97t19 -117q0 -75 -27.5 -139t-75 -110.5t-111 -73t-136.5 -26.5q-63 0 -119 20t-101 55l-28 -26.5l-25 -24.5l-26 -25zM550 545
q-29 24 -67 37t-82 13q-53 0 -97.5 -19.5t-77 -53.5t-50.5 -81t-18 -101q0 -81 40 -141zM401 85q53 0 98 19.5t77 53.5t50 81t18 101q0 40 -10.5 76t-29.5 65l-353 -346q30 -24 67.5 -37t82.5 -13z" />
    <glyph glyph-name="Ugrave" unicode="&#xd9;" horiz-adv-x="674" 
d="M200 941h116l60 -190h-78zM337 -9q-55 0 -102.5 15.5t-82.5 46.5t-54.5 77.5t-19.5 108.5v441h106v-435q0 -83 39 -121t114 -38t114.5 38t39.5 121v435h105v-441q0 -62 -20 -108.5t-54.5 -77.5t-82 -46.5t-102.5 -15.5z" />
    <glyph glyph-name="Uacute" unicode="&#xda;" horiz-adv-x="674" 
d="M358 941h116l-98 -190h-78zM337 -9q-55 0 -102.5 15.5t-82.5 46.5t-54.5 77.5t-19.5 108.5v441h106v-435q0 -83 39 -121t114 -38t114.5 38t39.5 121v435h105v-441q0 -62 -20 -108.5t-54.5 -77.5t-82 -46.5t-102.5 -15.5z" />
    <glyph glyph-name="Ucircumflex" unicode="&#xdb;" horiz-adv-x="674" 
d="M331 954h11l143 -204h-83l-65 83l-66 -83h-83zM337 -9q-55 0 -102.5 15.5t-82.5 46.5t-54.5 77.5t-19.5 108.5v441h106v-435q0 -83 39 -121t114 -38t114.5 38t39.5 121v435h105v-441q0 -62 -20 -108.5t-54.5 -77.5t-82 -46.5t-102.5 -15.5z" />
    <glyph glyph-name="Udieresis" unicode="&#xdc;" horiz-adv-x="674" 
d="M434 763q-23 0 -41.5 17.5t-18.5 43.5q0 25 18.5 42.5t41.5 17.5q24 0 42.5 -17.5t18.5 -42.5q0 -26 -18.5 -43.5t-42.5 -17.5zM240 763q-24 0 -42.5 17.5t-18.5 43.5q0 25 18.5 42.5t42.5 17.5t42 -17.5t18 -42.5q0 -26 -18 -43.5t-42 -17.5zM337 -9q-55 0 -102.5 15.5
t-82.5 46.5t-54.5 77.5t-19.5 108.5v441h106v-435q0 -83 39 -121t114 -38t114.5 38t39.5 121v435h105v-441q0 -62 -20 -108.5t-54.5 -77.5t-82 -46.5t-102.5 -15.5z" />
    <glyph glyph-name="Yacute" unicode="&#xdd;" horiz-adv-x="668" 
d="M356 941h116l-98 -190h-78zM287 215l-258 465h117l154 -280q8 -14 15.5 -31t12.5 -32q7 -18 13 -35q6 17 13 35q6 16 13 32.5t15 30.5l149 280h109l-247 -459v-221h-106v215z" />
    <glyph glyph-name="Thorn" unicode="&#xde;" horiz-adv-x="592" 
d="M82 680h106v-76h68q70 0 124 -18.5t90.5 -53t55.5 -82t19 -106.5q0 -58 -19 -106t-56 -81.5t-91 -52t-123 -18.5h-68v-86h-106v680zM252 178q99 0 142 45t43 121q0 78 -43.5 122.5t-141.5 44.5h-64v-333h64z" />
    <glyph glyph-name="germandbls" unicode="&#xdf;" horiz-adv-x="560" 
d="M305 -5q-27 0 -48 3t-33 8l15 83q12 -4 22.5 -6t27.5 -2q62 0 93 35t31 96q0 70 -43 105t-120 33v81q45 5 73.5 33t28.5 83t-25.5 79.5t-65.5 24.5q-41 0 -68.5 -27.5t-27.5 -89.5v-534h-101v532q0 51 15.5 89t42 63.5t62.5 38t77 12.5q85 0 136.5 -48.5t51.5 -135.5
q0 -104 -88 -146q71 -17 113.5 -66.5t42.5 -129.5q0 -47 -14 -86t-41 -67.5t-66.5 -44.5t-90.5 -16z" />
    <glyph glyph-name="agrave" unicode="&#xe0;" horiz-adv-x="479" 
d="M111 689h116l60 -190h-78zM318 250q0 51 -21.5 73t-62.5 22q-42 0 -67.5 -15t-42.5 -35l-58 59q28 33 68.5 54t107.5 21q38 0 70.5 -11t56 -33t37 -56t13.5 -81v-248h-101l3 60q-23 -34 -54 -51.5t-78 -17.5q-31 0 -58.5 7.5t-48 23.5t-32.5 41.5t-12 60.5
q0 33 12.5 56.5t34.5 39t52 23t66 7.5h115zM210 180q-33 0 -53 -12.5t-20 -40.5q0 -55 80 -55q45 0 73 20t28 55v33h-108z" />
    <glyph glyph-name="aacute" unicode="&#xe1;" horiz-adv-x="479" 
d="M253 689h116l-98 -190h-78zM318 250q0 51 -21.5 73t-62.5 22q-42 0 -67.5 -15t-42.5 -35l-58 59q28 33 68.5 54t107.5 21q38 0 70.5 -11t56 -33t37 -56t13.5 -81v-248h-101l3 60q-23 -34 -54 -51.5t-78 -17.5q-31 0 -58.5 7.5t-48 23.5t-32.5 41.5t-12 60.5
q0 33 12.5 56.5t34.5 39t52 23t66 7.5h115zM210 180q-33 0 -53 -12.5t-20 -40.5q0 -55 80 -55q45 0 73 20t28 55v33h-108z" />
    <glyph glyph-name="acircumflex" unicode="&#xe2;" horiz-adv-x="479" 
d="M233 702h11l143 -204h-83l-65 83l-66 -83h-83zM318 250q0 51 -21.5 73t-62.5 22q-42 0 -67.5 -15t-42.5 -35l-58 59q28 33 68.5 54t107.5 21q38 0 70.5 -11t56 -33t37 -56t13.5 -81v-248h-101l3 60q-23 -34 -54 -51.5t-78 -17.5q-31 0 -58.5 7.5t-48 23.5t-32.5 41.5
t-12 60.5q0 33 12.5 56.5t34.5 39t52 23t66 7.5h115zM210 180q-33 0 -53 -12.5t-20 -40.5q0 -55 80 -55q45 0 73 20t28 55v33h-108z" />
    <glyph glyph-name="atilde" unicode="&#xe3;" horiz-adv-x="479" 
d="M76 503q3 62 30.5 93.5t67.5 31.5q21 0 36.5 -7.5t29.5 -18.5q18 -14 27.5 -20.5t21.5 -6.5q28 0 32 52l71 -7q-3 -62 -29.5 -93.5t-68.5 -31.5q-20 0 -36 8t-30 19l-27 20.5t-21 6.5q-28 0 -33 -53zM318 250q0 51 -21.5 73t-62.5 22q-42 0 -67.5 -15t-42.5 -35l-58 59
q28 33 68.5 54t107.5 21q38 0 70.5 -11t56 -33t37 -56t13.5 -81v-248h-101l3 60q-23 -34 -54 -51.5t-78 -17.5q-31 0 -58.5 7.5t-48 23.5t-32.5 41.5t-12 60.5q0 33 12.5 56.5t34.5 39t52 23t66 7.5h115zM210 180q-33 0 -53 -12.5t-20 -40.5q0 -55 80 -55q45 0 73 20t28 55
v33h-108z" />
    <glyph glyph-name="adieresis" unicode="&#xe4;" horiz-adv-x="479" 
d="M337 511q-23 0 -41.5 17.5t-18.5 43.5q0 25 18.5 42.5t41.5 17.5q24 0 42.5 -17.5t18.5 -42.5q0 -26 -18.5 -43.5t-42.5 -17.5zM143 511q-24 0 -42.5 17.5t-18.5 43.5q0 25 18.5 42.5t42.5 17.5t42 -17.5t18 -42.5q0 -26 -18 -43.5t-42 -17.5zM318 250q0 51 -21.5 73
t-62.5 22q-42 0 -67.5 -15t-42.5 -35l-58 59q28 33 68.5 54t107.5 21q38 0 70.5 -11t56 -33t37 -56t13.5 -81v-248h-101l3 60q-23 -34 -54 -51.5t-78 -17.5q-31 0 -58.5 7.5t-48 23.5t-32.5 41.5t-12 60.5q0 33 12.5 56.5t34.5 39t52 23t66 7.5h115zM210 180
q-33 0 -53 -12.5t-20 -40.5q0 -55 80 -55q45 0 73 20t28 55v33h-108z" />
    <glyph glyph-name="aring" unicode="&#xe5;" horiz-adv-x="479" 
d="M239 479q-25 0 -46 8.5t-37 23.5t-25 35t-9 42q0 23 9 43t25 35t37 23.5t46 8.5t46.5 -8.5t37 -23.5t24.5 -35t9 -43q0 -22 -9 -42t-24.5 -35t-37 -23.5t-46.5 -8.5zM318 250q0 51 -21.5 73t-62.5 22q-42 0 -67.5 -15t-42.5 -35l-58 59q28 33 68.5 54t107.5 21
q38 0 70.5 -11t56 -33t37 -56t13.5 -81v-248h-101l3 60q-23 -34 -54 -51.5t-78 -17.5q-31 0 -58.5 7.5t-48 23.5t-32.5 41.5t-12 60.5q0 33 12.5 56.5t34.5 39t52 23t66 7.5h115zM239 538q21 0 34.5 13.5t13.5 36.5q0 24 -13.5 37.5t-34.5 13.5t-34.5 -13.5t-13.5 -37.5
q0 -23 13.5 -36.5t34.5 -13.5zM210 180q-33 0 -53 -12.5t-20 -40.5q0 -55 80 -55q45 0 73 20t28 55v33h-108z" />
    <glyph glyph-name="ae" unicode="&#xe6;" horiz-adv-x="802" 
d="M318 250q0 50 -21.5 72.5t-62.5 22.5q-42 0 -67.5 -15t-42.5 -35l-58 59q28 33 68.5 54t107.5 21q48 0 83.5 -19.5t53.5 -61.5q26 37 67.5 59t95.5 22t95.5 -19t69.5 -52.5t41.5 -80t10.5 -101.5h-339q9 -45 42.5 -72.5t90.5 -27.5q42 0 72 14t48 31l59 -62
q-29 -29 -71.5 -48.5t-106.5 -19.5q-63 0 -108 23t-72 63q-21 -42 -66 -64t-102 -22q-36 0 -67 7.5t-53.5 23t-35 41t-12.5 61.5q0 33 12.5 56.5t34.5 39t52 23t66 7.5h115zM657 246q-7 43 -34 71t-81 28q-49 0 -81 -26t-41 -73h237zM210 180q-33 0 -53 -12.5t-20 -40.5
q0 -55 80 -55q45 0 73 20t28 55v33h-108z" />
    <glyph glyph-name="ccedilla" unicode="&#xe7;" horiz-adv-x="473" 
d="M213 -3q-37 8 -68.5 27.5t-54 47t-35 63t-12.5 75.5q0 47 17 87t47 69.5t71 46t89 16.5q60 0 100 -21t70 -59l-72 -58q-15 22 -40.5 35.5t-57.5 13.5q-57 0 -88.5 -36.5t-31.5 -93.5t31.5 -93.5t88.5 -36.5q38 0 62 13.5t41 33.5l69 -60q-30 -35 -69.5 -55t-99.5 -21v-37
q34 -6 60 -30t26 -67q0 -22 -8.5 -39.5t-23 -29.5t-32.5 -18t-37 -6q-43 0 -69.5 17.5t-40.5 42.5l52 31q7 -14 18.5 -23.5t31.5 -9.5q17 0 29.5 10t12.5 30q0 19 -13 30.5t-36 11.5h-27v93z" />
    <glyph glyph-name="egrave" unicode="&#xe8;" horiz-adv-x="527" 
d="M133 689h116l60 -190h-78zM146 176q9 -46 42 -73t91 -27q42 0 71.5 14t47.5 31l59 -62q-29 -29 -71.5 -48.5t-105.5 -19.5q-54 0 -98 16.5t-74.5 46t-47.5 69.5t-17 87t17.5 87t47.5 69.5t71 46t88 16.5q54 0 95.5 -19t69.5 -52.5t41.5 -80t10.5 -101.5h-338zM382 246
q-7 43 -34 71t-80 28q-49 0 -81 -25.5t-41 -73.5h236z" />
    <glyph glyph-name="eacute" unicode="&#xe9;" horiz-adv-x="527" 
d="M284 689h116l-98 -190h-78zM146 176q9 -46 42 -73t91 -27q42 0 71.5 14t47.5 31l59 -62q-29 -29 -71.5 -48.5t-105.5 -19.5q-54 0 -98 16.5t-74.5 46t-47.5 69.5t-17 87t17.5 87t47.5 69.5t71 46t88 16.5q54 0 95.5 -19t69.5 -52.5t41.5 -80t10.5 -101.5h-338zM382 246
q-7 43 -34 71t-80 28q-49 0 -81 -25.5t-41 -73.5h236z" />
    <glyph glyph-name="ecircumflex" unicode="&#xea;" horiz-adv-x="527" 
d="M257 702h11l143 -204h-83l-65 83l-66 -83h-83zM146 176q9 -46 42 -73t91 -27q42 0 71.5 14t47.5 31l59 -62q-29 -29 -71.5 -48.5t-105.5 -19.5q-54 0 -98 16.5t-74.5 46t-47.5 69.5t-17 87t17.5 87t47.5 69.5t71 46t88 16.5q54 0 95.5 -19t69.5 -52.5t41.5 -80
t10.5 -101.5h-338zM382 246q-7 43 -34 71t-80 28q-49 0 -81 -25.5t-41 -73.5h236z" />
    <glyph glyph-name="edieresis" unicode="&#xeb;" horiz-adv-x="527" 
d="M360 511q-23 0 -41.5 17.5t-18.5 43.5q0 25 18.5 42.5t41.5 17.5q24 0 42.5 -17.5t18.5 -42.5q0 -26 -18.5 -43.5t-42.5 -17.5zM166 511q-24 0 -42.5 17.5t-18.5 43.5q0 25 18.5 42.5t42.5 17.5t42 -17.5t18 -42.5q0 -26 -18 -43.5t-42 -17.5zM146 176q9 -46 42 -73
t91 -27q42 0 71.5 14t47.5 31l59 -62q-29 -29 -71.5 -48.5t-105.5 -19.5q-54 0 -98 16.5t-74.5 46t-47.5 69.5t-17 87t17.5 87t47.5 69.5t71 46t88 16.5q54 0 95.5 -19t69.5 -52.5t41.5 -80t10.5 -101.5h-338zM382 246q-7 43 -34 71t-80 28q-49 0 -81 -25.5t-41 -73.5h236z
" />
    <glyph glyph-name="igrave" unicode="&#xec;" horiz-adv-x="236" 
d="M-20 689h116l60 -190h-78zM67 420h102v-420h-102v420z" />
    <glyph glyph-name="iacute" unicode="&#xed;" horiz-adv-x="236" 
d="M136 689h116l-98 -190h-78zM67 420h102v-420h-102v420z" />
    <glyph glyph-name="icircumflex" unicode="&#xee;" horiz-adv-x="237" 
d="M112 702h11l143 -204h-83l-65 83l-66 -83h-83zM67 420h102v-420h-102v420z" />
    <glyph glyph-name="idieresis" unicode="&#xef;" horiz-adv-x="236" 
d="M215 511q-23 0 -41.5 17.5t-18.5 43.5q0 25 18.5 42.5t41.5 17.5q24 0 42.5 -17.5t18.5 -42.5q0 -26 -18.5 -43.5t-42.5 -17.5zM21 511q-24 0 -42.5 17.5t-18.5 43.5q0 25 18.5 42.5t42.5 17.5t42 -17.5t18 -42.5q0 -26 -18 -43.5t-42 -17.5zM67 420h102v-420h-102v420z
" />
    <glyph glyph-name="eth" unicode="&#xf0;" horiz-adv-x="539" 
d="M209 492l-48 48l66 63q-19 20 -37.5 37.5t-38.5 34.5l54 64l41.5 -34l44.5 -39l61 59l49 -48l-63 -61q32 -36 60.5 -78t50.5 -91t34.5 -104t12.5 -118q0 -54 -17.5 -97.5t-47.5 -73.5t-71.5 -46.5t-89.5 -16.5t-89 16.5t-72 46t-48.5 69.5t-17.5 87t17.5 87.5t47 69.5
t67.5 45.5t80 16.5q70 0 112 -45q-14 44 -38.5 86t-56.5 82zM270 78q57 0 89.5 37.5t32.5 96.5q0 57 -32.5 93t-89.5 36t-90 -36.5t-33 -94.5t33 -95t90 -37z" />
    <glyph glyph-name="ntilde" unicode="&#xf1;" horiz-adv-x="522" 
d="M102 503q3 62 30.5 93.5t67.5 31.5q21 0 36.5 -7.5t29.5 -18.5q18 -14 27.5 -20.5t21.5 -6.5q28 0 32 52l71 -7q-3 -62 -29.5 -93.5t-68.5 -31.5q-20 0 -36 8t-30 19l-27 20.5t-21 6.5q-28 0 -33 -53zM64 420h101l-2 -78q20 42 57 64.5t85 22.5q70 0 113.5 -47t43.5 -133
v-249h-101v241q0 45 -21 70t-66 25q-50 0 -79.5 -28.5t-29.5 -79.5v-228h-101v420z" />
    <glyph glyph-name="ograve" unicode="&#xf2;" horiz-adv-x="539" 
d="M130 689h116l60 -190h-78zM270 -9q-48 0 -89 16.5t-72 46t-48.5 69.5t-17.5 87t17.5 87t48.5 69.5t72 46t89 16.5t89.5 -16.5t71.5 -46t47.5 -69.5t17.5 -87t-17.5 -87t-47.5 -69.5t-71.5 -46t-89.5 -16.5zM270 78q57 0 89.5 37t32.5 95t-32.5 94.5t-89.5 36.5t-90 -36.5
t-33 -94.5t33 -95t90 -37z" />
    <glyph glyph-name="oacute" unicode="&#xf3;" horiz-adv-x="539" 
d="M292 689h116l-98 -190h-78zM270 -9q-48 0 -89 16.5t-72 46t-48.5 69.5t-17.5 87t17.5 87t48.5 69.5t72 46t89 16.5t89.5 -16.5t71.5 -46t47.5 -69.5t17.5 -87t-17.5 -87t-47.5 -69.5t-71.5 -46t-89.5 -16.5zM270 78q57 0 89.5 37t32.5 95t-32.5 94.5t-89.5 36.5
t-90 -36.5t-33 -94.5t33 -95t90 -37z" />
    <glyph glyph-name="ocircumflex" unicode="&#xf4;" horiz-adv-x="539" 
d="M263 702h11l143 -204h-83l-65 83l-66 -83h-83zM270 -9q-48 0 -89 16.5t-72 46t-48.5 69.5t-17.5 87t17.5 87t48.5 69.5t72 46t89 16.5t89.5 -16.5t71.5 -46t47.5 -69.5t17.5 -87t-17.5 -87t-47.5 -69.5t-71.5 -46t-89.5 -16.5zM270 78q57 0 89.5 37t32.5 95t-32.5 94.5
t-89.5 36.5t-90 -36.5t-33 -94.5t33 -95t90 -37z" />
    <glyph glyph-name="otilde" unicode="&#xf5;" horiz-adv-x="539" 
d="M111 503q3 62 30.5 93.5t67.5 31.5q21 0 36.5 -7.5t29.5 -18.5q18 -14 27.5 -20.5t21.5 -6.5q28 0 32 52l71 -7q-3 -62 -29.5 -93.5t-68.5 -31.5q-20 0 -36 8t-30 19l-27 20.5t-21 6.5q-28 0 -33 -53zM270 -9q-48 0 -89 16.5t-72 46t-48.5 69.5t-17.5 87t17.5 87
t48.5 69.5t72 46t89 16.5t89.5 -16.5t71.5 -46t47.5 -69.5t17.5 -87t-17.5 -87t-47.5 -69.5t-71.5 -46t-89.5 -16.5zM270 78q57 0 89.5 37t32.5 95t-32.5 94.5t-89.5 36.5t-90 -36.5t-33 -94.5t33 -95t90 -37z" />
    <glyph glyph-name="odieresis" unicode="&#xf6;" horiz-adv-x="539" 
d="M366 511q-23 0 -41.5 17.5t-18.5 43.5q0 25 18.5 42.5t41.5 17.5q24 0 42.5 -17.5t18.5 -42.5q0 -26 -18.5 -43.5t-42.5 -17.5zM172 511q-24 0 -42.5 17.5t-18.5 43.5q0 25 18.5 42.5t42.5 17.5t42 -17.5t18 -42.5q0 -26 -18 -43.5t-42 -17.5zM270 -9q-48 0 -89 16.5
t-72 46t-48.5 69.5t-17.5 87t17.5 87t48.5 69.5t72 46t89 16.5t89.5 -16.5t71.5 -46t47.5 -69.5t17.5 -87t-17.5 -87t-47.5 -69.5t-71.5 -46t-89.5 -16.5zM270 78q57 0 89.5 37t32.5 95t-32.5 94.5t-89.5 36.5t-90 -36.5t-33 -94.5t33 -95t90 -37z" />
    <glyph glyph-name="divide" unicode="&#xf7;" 
d="M111 181q-28 0 -48.5 19.5t-20.5 50.5q0 30 20.5 49t48.5 19q27 0 47.5 -19t20.5 -49q0 -31 -20.5 -50.5t-47.5 -19.5z" />
    <glyph glyph-name="oslash" unicode="&#xf8;" horiz-adv-x="539" 
d="M457 333q39 -55 39 -123q0 -47 -17.5 -87t-47.5 -69.5t-71.5 -46t-89.5 -16.5q-42 0 -78.5 13t-65.5 36l-60 -53l-42 48l58 51q-39 56 -39 124q0 47 17.5 87t48.5 69.5t72 46t89 16.5q42 0 78 -13t65 -36l60 53l42 -49zM346 321q-31 23 -76 23q-57 0 -92.5 -37.5
t-35.5 -96.5q0 -32 11 -60zM192 99q33 -25 78 -25q58 0 92.5 38t34.5 98q0 32 -11 60z" />
    <glyph glyph-name="ugrave" unicode="&#xf9;" horiz-adv-x="520" 
d="M123 689h116l60 -190h-78zM216 -9q-69 0 -112.5 46.5t-43.5 132.5v250h101v-242q0 -45 21 -70t66 -25q50 0 78.5 29t28.5 80v228h101v-420h-101l2 77q-20 -41 -56.5 -63.5t-84.5 -22.5z" />
    <glyph glyph-name="uacute" unicode="&#xfa;" horiz-adv-x="520" 
d="M281 689h116l-98 -190h-78zM216 -9q-69 0 -112.5 46.5t-43.5 132.5v250h101v-242q0 -45 21 -70t66 -25q50 0 78.5 29t28.5 80v228h101v-420h-101l2 77q-20 -41 -56.5 -63.5t-84.5 -22.5z" />
    <glyph glyph-name="ucircumflex" unicode="&#xfb;" horiz-adv-x="520" 
d="M254 702h11l143 -204h-83l-65 83l-66 -83h-83zM216 -9q-69 0 -112.5 46.5t-43.5 132.5v250h101v-242q0 -45 21 -70t66 -25q50 0 78.5 29t28.5 80v228h101v-420h-101l2 77q-20 -41 -56.5 -63.5t-84.5 -22.5z" />
    <glyph glyph-name="udieresis" unicode="&#xfc;" horiz-adv-x="520" 
d="M357 511q-23 0 -41.5 17.5t-18.5 43.5q0 25 18.5 42.5t41.5 17.5q24 0 42.5 -17.5t18.5 -42.5q0 -26 -18.5 -43.5t-42.5 -17.5zM163 511q-24 0 -42.5 17.5t-18.5 43.5q0 25 18.5 42.5t42.5 17.5t42 -17.5t18 -42.5q0 -26 -18 -43.5t-42 -17.5zM216 -9q-69 0 -112.5 46.5
t-43.5 132.5v250h101v-242q0 -45 21 -70t66 -25q50 0 78.5 29t28.5 80v228h101v-420h-101l2 77q-20 -41 -56.5 -63.5t-84.5 -22.5z" />
    <glyph glyph-name="yacute" unicode="&#xfd;" horiz-adv-x="476" 
d="M264 689h116l-98 -190h-78zM189 38l-172 382h112l88 -210q5 -12 9.5 -27t7.5 -28q4 -16 7 -32l6 32q3 14 7.5 28.5t9.5 26.5l90 210h105l-275 -632h-104z" />
    <glyph glyph-name="thorn" unicode="&#xfe;" horiz-adv-x="554" 
d="M67 722h101v-375q22 36 58 59t90 23q41 0 76 -16t61.5 -45t41.5 -69t15 -88t-15.5 -88t-42 -69.5t-62 -46t-76.5 -16.5q-53 0 -90 23t-56 58v-284h-101v934zM287 80q54 0 86 35.5t32 95.5q0 57 -32 92.5t-86 35.5q-56 0 -89 -35.5t-33 -92.5q0 -60 33 -95.5t89 -35.5z
" />
    <glyph glyph-name="ydieresis" unicode="&#xff;" horiz-adv-x="476" 
d="M334 511q-23 0 -41.5 17.5t-18.5 43.5q0 25 18.5 42.5t41.5 17.5q24 0 42.5 -17.5t18.5 -42.5q0 -26 -18.5 -43.5t-42.5 -17.5zM140 511q-24 0 -42.5 17.5t-18.5 43.5q0 25 18.5 42.5t42.5 17.5t42 -17.5t18 -42.5q0 -26 -18 -43.5t-42 -17.5zM189 38l-172 382h112
l88 -210q5 -12 9.5 -27t7.5 -28q4 -16 7 -32l6 32q3 14 7.5 28.5t9.5 26.5l90 210h105l-275 -632h-104z" />
    <glyph glyph-name="dotlessi" unicode="&#x131;" horiz-adv-x="236" 
d="M67 420h102v-420h-102v420z" />
    <glyph glyph-name="Lslash" unicode="&#x141;" horiz-adv-x="551" 
d="M89 188l-75 -27v93l75 27v399h105v-361l190 70v-93l-190 -70v-133h315v-93h-420v188z" />
    <glyph glyph-name="lslash" unicode="&#x142;" horiz-adv-x="277" 
d="M88 215l-77 -45v99l77 45v408h101v-351l81 48v-99l-81 -48v-272h-101v215z" />
    <glyph glyph-name="OE" unicode="&#x152;" horiz-adv-x="992" 
d="M408 0q-81 0 -147 25t-113 70t-72.5 107.5t-25.5 137.5t25.5 137.5t72.5 107.5t113 70t147 25h511v-93h-326v-264h289v-91h-289v-139h340v-93h-525zM487 93v494h-73q-65 0 -113 -18t-80 -51t-47.5 -78.5t-15.5 -99.5t15.5 -99.5t47.5 -78.5t80 -51t113 -18h73z" />
    <glyph glyph-name="oe" unicode="&#x153;" horiz-adv-x="875" 
d="M493 176q9 -46 42 -73t91 -27q42 0 71.5 14t47.5 31l59 -62q-29 -29 -71.5 -48.5t-105.5 -19.5q-66 0 -112 26t-71 70q-24 -44 -68.5 -70t-105.5 -26q-48 0 -89 16.5t-72 46t-48.5 69.5t-17.5 87t17.5 87t48.5 69.5t72 46t89 16.5q61 0 105 -25.5t68 -69.5q24 43 68 69
t104 26q53 0 94.5 -19t69.5 -52.5t41.5 -80t10.5 -101.5h-338zM729 246q-7 43 -34 71t-80 28q-49 0 -81 -25.5t-41 -73.5h236zM270 78q57 0 89.5 37t32.5 95t-32.5 94.5t-89.5 36.5t-90 -36.5t-33 -94.5t33 -95t90 -37z" />
    <glyph glyph-name="Scaron" unicode="&#x160;" horiz-adv-x="533" 
d="M105 941h83l65 -83l66 83h83l-143 -204h-11zM266 -9q-48 0 -87 11t-69.5 30.5t-52.5 45t-36 54.5l87 48q12 -20 26 -37.5t32.5 -30t42.5 -20t55 -7.5q52 0 85 25.5t33 67.5q0 44 -29 68.5t-85 49.5l-45 20q-37 17 -66.5 35t-50 41.5t-31.5 53.5t-11 69q0 38 14 69.5
t39 54.5t60.5 36t77.5 13q68 0 114.5 -26t77.5 -81l-83 -51q-20 34 -44.5 50t-64.5 16q-41 0 -64.5 -22t-23.5 -57q0 -38 23 -59.5t75 -44.5l44 -20q44 -19 77 -39.5t55.5 -45.5t34 -56.5t11.5 -72.5q0 -45 -16.5 -80t-46 -59t-70 -36.5t-88.5 -12.5z" />
    <glyph glyph-name="scaron" unicode="&#x161;" horiz-adv-x="415" 
d="M52 689h83l65 -83l66 83h83l-143 -204h-11zM214 -9q-72 0 -119.5 26.5t-68.5 60.5l69 48q20 -28 48.5 -41t64.5 -13q38 0 56 12t18 33q0 26 -24.5 35t-77.5 24q-23 6 -45.5 15.5t-40 24.5t-28 36.5t-10.5 52.5q0 32 12 55t32 38.5t47.5 23t58.5 7.5q51 0 86.5 -18.5
t59.5 -44.5l-59 -58q-15 17 -36.5 29t-50.5 12q-59 0 -59 -39q0 -24 21 -33.5t71 -22.5q25 -6 49.5 -15t44 -24t32 -37.5t12.5 -55.5q0 -27 -8.5 -51t-28 -41.5t-50.5 -28t-76 -10.5z" />
    <glyph glyph-name="Ydieresis" unicode="&#x178;" horiz-adv-x="668" 
d="M431 763q-23 0 -41.5 17.5t-18.5 43.5q0 25 18.5 42.5t41.5 17.5q24 0 42.5 -17.5t18.5 -42.5q0 -26 -18.5 -43.5t-42.5 -17.5zM237 763q-24 0 -42.5 17.5t-18.5 43.5q0 25 18.5 42.5t42.5 17.5t42 -17.5t18 -42.5q0 -26 -18 -43.5t-42 -17.5zM287 215l-258 465h117
l154 -280q8 -14 15.5 -31t12.5 -32q7 -18 13 -35q6 17 13 35q6 16 13 32.5t15 30.5l149 280h109l-247 -459v-221h-106v215z" />
    <glyph glyph-name="Zcaron" unicode="&#x17d;" horiz-adv-x="598" 
d="M161 941h83l65 -83l66 83h83l-143 -204h-11zM33 11l344 576h-289v93h454v-11l-342 -576h335v-93h-502v11z" />
    <glyph glyph-name="zcaron" unicode="&#x17e;" horiz-adv-x="437" 
d="M78 689h83l65 -83l66 83h83l-143 -204h-11zM28 11l216 327h-192v82h347v-11l-217 -327h206v-82h-360v11z" />
    <glyph glyph-name="florin" unicode="&#x192;" horiz-adv-x="382" 
d="M153 -212h-99l46 405h-65v79h74l22 196q9 78 47 114t98 36q43 0 70.5 -15.5t45.5 -41.5l-64 -56q-9 14 -19.5 20.5t-27.5 6.5q-20 0 -33 -13t-17 -45l-23 -202h100v-79h-109z" />
    <glyph glyph-name="circumflex" unicode="&#x2c6;" horiz-adv-x="500" 
d="M244 702h11l143 -204h-83l-65 83l-66 -83h-83z" />
    <glyph glyph-name="caron" unicode="&#x2c7;" horiz-adv-x="500" 
d="M102 689h83l65 -83l66 83h83l-143 -204h-11z" />
    <glyph glyph-name="breve" unicode="&#x2d8;" horiz-adv-x="500" 
d="M250 494q-65 0 -102 36.5t-44 91.5l79 12q5 -27 20 -45.5t47 -18.5t47 18.5t20 45.5l79 -12q-7 -55 -44 -91.5t-102 -36.5z" />
    <glyph glyph-name="dotaccent" unicode="&#x2d9;" horiz-adv-x="500" 
d="M250 511q-23 0 -42 17.5t-19 43.5t19 43.5t42 17.5q24 0 42.5 -17.5t18.5 -43.5t-18.5 -43.5t-42.5 -17.5z" />
    <glyph glyph-name="ring" unicode="&#x2da;" horiz-adv-x="500" 
d="M250 479q-25 0 -46 8.5t-37 23.5t-25 35t-9 42q0 23 9 43t25 35t37 23.5t46 8.5t46.5 -8.5t37 -23.5t24.5 -35t9 -43q0 -22 -9 -42t-24.5 -35t-37 -23.5t-46.5 -8.5zM250 538q21 0 34.5 13.5t13.5 36.5q0 24 -13.5 37.5t-34.5 13.5t-34.5 -13.5t-13.5 -37.5
q0 -23 13.5 -36.5t34.5 -13.5z" />
    <glyph glyph-name="ogonek" unicode="&#x2db;" horiz-adv-x="500" 
d="M240 -236q-39 0 -69 23.5t-30 71.5q0 28 11.5 52t28.5 45l34 44h64l-38 -63q-16 -26 -23 -41t-7 -35q0 -18 10 -27.5t25 -9.5q18 0 28.5 9.5t18.5 21.5l53 -31q-14 -27 -39 -43.5t-67 -16.5z" />
    <glyph glyph-name="tilde" unicode="&#x2dc;" horiz-adv-x="500" 
d="M92 503q3 62 30.5 93.5t67.5 31.5q21 0 36.5 -7.5t29.5 -18.5q18 -14 27.5 -20.5t21.5 -6.5q28 0 32 52l71 -7q-3 -62 -29.5 -93.5t-68.5 -31.5q-20 0 -36 8t-30 19l-27 20.5t-21 6.5q-28 0 -33 -53z" />
    <glyph glyph-name="hungarumlaut" unicode="&#x2dd;" horiz-adv-x="500" 
d="M350 689h107l-89 -190h-77zM189 689h107l-89 -190h-78z" />
    <glyph glyph-name="pi" unicode="&#x3c0;" 
d="M111 181q-28 0 -48.5 19.5t-20.5 50.5q0 30 20.5 49t48.5 19q27 0 47.5 -19t20.5 -49q0 -31 -20.5 -50.5t-47.5 -19.5z" />
    <glyph glyph-name="endash" unicode="&#x2013;" horiz-adv-x="400" 
d="M33 255h334v-90h-334v90z" />
    <glyph glyph-name="emdash" unicode="&#x2014;" horiz-adv-x="640" 
d="M33 255h574v-90h-574v90z" />
    <glyph glyph-name="quoteleft" unicode="&#x2018;" 
d="M110 445q-26 0 -46 18.5t-20 46.5q0 17 5.5 31.5t15.5 31.5l57 107h51l-36 -109q16 -6 27.5 -22t11.5 -38q0 -29 -20 -47.5t-46 -18.5z" />
    <glyph glyph-name="quoteright" unicode="&#x2019;" 
d="M82 561q-15 6 -26.5 22t-11.5 38q0 29 19.5 47.5t45.5 18.5q27 0 47 -18.5t20 -46.5q0 -17 -5.5 -31.5t-15.5 -31.5l-58 -107h-51z" />
    <glyph glyph-name="quotesinglbase" unicode="&#x201a;" 
d="M82 7q-15 6 -26.5 22t-11.5 38q0 28 19.5 47t45.5 19q27 0 47 -19t20 -47q0 -16 -5.5 -30.5t-15.5 -31.5l-58 -107h-51z" />
    <glyph glyph-name="quotedblleft" unicode="&#x201c;" horiz-adv-x="406" 
d="M297 445q-26 0 -46.5 18.5t-20.5 46.5q0 17 6 31.5t16 31.5l57 107h51l-36 -109q16 -6 27.5 -22t11.5 -38q0 -29 -20 -47.5t-46 -18.5zM110 445q-26 0 -46 18.5t-20 46.5q0 17 5.5 31.5t15.5 31.5l57 107h51l-36 -109q16 -6 27.5 -22t11.5 -38q0 -29 -20 -47.5t-46 -18.5
z" />
    <glyph glyph-name="quotedblright" unicode="&#x201d;" horiz-adv-x="406" 
d="M269 561q-15 6 -27 22t-12 38q0 29 20 47.5t46 18.5q27 0 47 -18.5t20 -46.5q0 -17 -6 -31.5t-15 -31.5l-58 -107h-51zM82 561q-15 6 -26.5 22t-11.5 38q0 29 19.5 47.5t45.5 18.5q27 0 47 -18.5t20 -46.5q0 -17 -5.5 -31.5t-15.5 -31.5l-58 -107h-51z" />
    <glyph glyph-name="quotedblbase" unicode="&#x201e;" horiz-adv-x="406" 
d="M269 7q-15 6 -27 22t-12 38q0 28 20 47t46 19q27 0 47 -19t20 -47q0 -16 -6 -30.5t-15 -31.5l-58 -107h-51zM82 7q-15 6 -26.5 22t-11.5 38q0 28 19.5 47t45.5 19q27 0 47 -19t20 -47q0 -16 -5.5 -30.5t-15.5 -31.5l-58 -107h-51z" />
    <glyph glyph-name="dagger" unicode="&#x2020;" horiz-adv-x="349" 
d="M128 495h-91v84h91v101h93v-101h91v-84h-91v-234h-93v234z" />
    <glyph glyph-name="daggerdbl" unicode="&#x2021;" horiz-adv-x="349" 
d="M128 362h-91v76h91v65h-91v76h91v101h93v-101h91v-76h-91v-65h91v-76h-91v-101h-93v101z" />
    <glyph glyph-name="bullet" unicode="&#x2022;" horiz-adv-x="278" 
d="M139 169q-20 0 -38.5 8t-32.5 21.5t-22 32t-8 39.5q0 22 8 40.5t22 32t32.5 21t38.5 7.5t38 -7.5t32 -21t22.5 -32t8.5 -40.5q0 -21 -8.5 -39.5t-22.5 -32t-32 -21.5t-38 -8z" />
    <glyph glyph-name="ellipsis" unicode="&#x2026;" horiz-adv-x="674" 
d="M563 -6q-28 0 -49 19.5t-21 49.5t21 49t49 19q27 0 47.5 -19t20.5 -49t-20.5 -49.5t-47.5 -19.5zM337 -6q-28 0 -48.5 19.5t-20.5 49.5t20.5 49t48.5 19t48.5 -19t20.5 -49t-20.5 -49.5t-48.5 -19.5zM112 -6q-28 0 -48.5 19.5t-20.5 49.5t20.5 49t48.5 19q27 0 47.5 -19
t20.5 -49t-20.5 -49.5t-47.5 -19.5z" />
    <glyph glyph-name="perthousand" unicode="&#x2030;" horiz-adv-x="1166" 
d="M183 218q-31 0 -59.5 11t-50 31.5t-34 48t-12.5 60.5t12.5 61t34 48t50 31.5t59.5 11.5q32 0 60 -11.5t49.5 -31.5t34 -48t12.5 -61t-12.5 -60.5t-34 -48t-49.5 -31.5t-60 -11zM515 513h101l-322 -513h-101zM983 -9q-32 0 -60.5 11t-49.5 31.5t-33.5 48.5t-12.5 61
t12.5 61t33.5 48t49.5 31.5t60.5 11.5t60 -11.5t49.5 -31.5t34 -48t12.5 -61t-12.5 -61t-34 -48.5t-49.5 -31.5t-60 -11zM626 -9q-31 0 -59.5 11t-50 31.5t-34 48.5t-12.5 61t12.5 61t34 48t50 31.5t59.5 11.5q32 0 60 -11.5t49.5 -31.5t34 -48t12.5 -61t-12.5 -61
t-34 -48.5t-49.5 -31.5t-60 -11zM183 295q29 0 50 20t21 54q0 35 -21 55t-50 20q-28 0 -49.5 -20t-21.5 -55q0 -34 21.5 -54t49.5 -20zM983 69q28 0 49.5 20t21.5 54t-21.5 54t-49.5 20t-49 -20t-21 -54t21 -54t49 -20zM626 69q29 0 50 20t21 54t-21 54t-50 20
q-28 0 -49 -20t-21 -54t21 -54t49 -20z" />
    <glyph glyph-name="guilsinglleft" unicode="&#x2039;" horiz-adv-x="265" 
d="M35 198v8l94 161h101l-97 -165l97 -167h-101z" />
    <glyph glyph-name="guilsinglright" unicode="&#x203a;" horiz-adv-x="265" 
d="M132 200l-97 167h100l95 -163v-8l-95 -161h-100z" />
    <glyph glyph-name="fraction" unicode="&#x2044;" horiz-adv-x="386" 
d="M304 513h100l-322 -513h-100z" />
    <glyph glyph-name="Euro" unicode="&#x20ac;" horiz-adv-x="610" 
d="M33 283v72h81q15 38 39.5 68.5t57 52t71 33.5t80.5 12q68 0 116 -22t85 -70l-71 -59q-24 32 -54.5 48t-75.5 16q-48 0 -84 -20.5t-57 -58.5h174v-72h-196q-1 -6 -1 -12.5v-13.5t0.5 -13.5t0.5 -13.5h196v-72h-173q21 -38 57 -58.5t83 -20.5q51 0 82 19t52 51l76 -55
q-36 -54 -86 -78.5t-124 -24.5q-42 0 -80.5 12t-70.5 34t-56.5 53t-39.5 68h-82v72h65q-1 7 -1 13.5v13.5v13.5t1 12.5h-65z" />
    <glyph glyph-name="trademark" unicode="&#x2122;" horiz-adv-x="718" 
d="M344 684h9l145 -154l146 154h9v-303h-72v156l-78 -92h-9l-79 92v-156h-71v303zM127 620h-85v60h243v-60h-85v-239h-73v239z" />
    <glyph glyph-name="Omega" unicode="&#x2126;" 
d="M111 181q-28 0 -48.5 19.5t-20.5 50.5q0 30 20.5 49t48.5 19q27 0 47.5 -19t20.5 -49q0 -31 -20.5 -50.5t-47.5 -19.5z" />
    <glyph glyph-name="partialdiff" unicode="&#x2202;" 
d="M111 181q-28 0 -48.5 19.5t-20.5 50.5q0 30 20.5 49t48.5 19q27 0 47.5 -19t20.5 -49q0 -31 -20.5 -50.5t-47.5 -19.5z" />
    <glyph glyph-name="Delta" unicode="&#x2206;" 
d="M111 181q-28 0 -48.5 19.5t-20.5 50.5q0 30 20.5 49t48.5 19q27 0 47.5 -19t20.5 -49q0 -31 -20.5 -50.5t-47.5 -19.5z" />
    <glyph glyph-name="product" unicode="&#x220f;" 
d="M111 181q-28 0 -48.5 19.5t-20.5 50.5q0 30 20.5 49t48.5 19q27 0 47.5 -19t20.5 -49q0 -31 -20.5 -50.5t-47.5 -19.5z" />
    <glyph glyph-name="summation" unicode="&#x2211;" horiz-adv-x="801" 
d="M458 6q26 -23 53 -39t66 -16q33 0 55 14.5t36 30.5l69 -61q-25 -33 -62.5 -54.5t-96.5 -21.5q-34 0 -63.5 9.5t-55 24.5t-47.5 33.5l-43 36.5q-30 25 -60 44t-67 19q-39 0 -66.5 -20.5t-46.5 -49.5l-71 58q35 54 96 79q-48 45 -76.5 108t-28.5 140q0 76 27.5 140t75 110
t111.5 72t137 26t136.5 -26t111 -72t75 -110t27.5 -140q0 -68 -22 -125.5t-61 -101t-92.5 -71.5t-116.5 -37zM400 90q53 0 97.5 19t76.5 52.5t50 79.5t18 100t-18 100.5t-50 80.5t-76.5 53t-97.5 19t-97.5 -19t-77 -53t-50.5 -80.5t-18 -100.5t18 -100t50.5 -79.5t77 -52.5
t97.5 -19z" />
    <glyph glyph-name="minus" unicode="&#x2212;" 
d="M111 181q-28 0 -48.5 19.5t-20.5 50.5q0 30 20.5 49t48.5 19q27 0 47.5 -19t20.5 -49q0 -31 -20.5 -50.5t-47.5 -19.5z" />
    <glyph glyph-name="radical" unicode="&#x221a;" 
d="M111 181q-28 0 -48.5 19.5t-20.5 50.5q0 30 20.5 49t48.5 19q27 0 47.5 -19t20.5 -49q0 -31 -20.5 -50.5t-47.5 -19.5z" />
    <glyph glyph-name="infinity" unicode="&#x221e;" horiz-adv-x="813" 
d="M696 516q-27 0 -47.5 18.5t-20.5 48.5q0 29 20.5 47.5t47.5 18.5q26 0 46 -18.5t20 -47.5q0 -30 -20 -48.5t-46 -18.5zM102 335h-69v85h69v146q0 76 34.5 112.5t97.5 36.5q69 0 109 -44l-54 -65q-7 7 -16.5 12.5t-26.5 5.5q-19 0 -31 -12.5t-12 -44.5v-147h170v166
q0 76 35 112.5t100 36.5q40 0 65 -12t43 -30l-56 -68q-8 8 -17 13.5t-26 5.5q-19 0 -31 -12.5t-12 -44.5v-167h272v-420h-102v335h-170v-335h-101v335h-170v-335h-101v335z" />
    <glyph glyph-name="integral" unicode="&#x222b;" 
d="M111 181q-28 0 -48.5 19.5t-20.5 50.5q0 30 20.5 49t48.5 19q27 0 47.5 -19t20.5 -49q0 -31 -20.5 -50.5t-47.5 -19.5z" />
    <glyph glyph-name="approxequal" unicode="&#x2248;" 
d="M111 181q-28 0 -48.5 19.5t-20.5 50.5q0 30 20.5 49t48.5 19q27 0 47.5 -19t20.5 -49q0 -31 -20.5 -50.5t-47.5 -19.5z" />
    <glyph glyph-name="notequal" unicode="&#x2260;" horiz-adv-x="620" 
d="M102 335h-69v85h69v146q0 76 34.5 112.5t97.5 36.5q69 0 109 -44l-54 -65q-7 7 -16.5 12.5t-26.5 5.5q-19 0 -31 -12.5t-12 -44.5v-147h170v166q0 76 35 112.5t100 36.5q42 0 70.5 -13.5t48.5 -38.5l-60 -64q-9 11 -20 18t-29 7q-20 0 -32 -12.5t-12 -44.5v-167h113v-85
h-113v-335h-101v335h-170v-335h-101v335z" />
    <glyph glyph-name="lessequal" unicode="&#x2264;" 
d="M111 181q-28 0 -48.5 19.5t-20.5 50.5q0 30 20.5 49t48.5 19q27 0 47.5 -19t20.5 -49q0 -31 -20.5 -50.5t-47.5 -19.5z" />
    <glyph glyph-name="greaterequal" unicode="&#x2265;" 
d="M111 181q-28 0 -48.5 19.5t-20.5 50.5q0 30 20.5 49t48.5 19q27 0 47.5 -19t20.5 -49q0 -31 -20.5 -50.5t-47.5 -19.5z" />
    <glyph glyph-name="lozenge" unicode="&#x25ca;" 
d="M111 181q-28 0 -48.5 19.5t-20.5 50.5q0 30 20.5 49t48.5 19q27 0 47.5 -19t20.5 -49q0 -31 -20.5 -50.5t-47.5 -19.5z" />
    <glyph glyph-name="fi" unicode="&#xfb01;" horiz-adv-x="542" 
d="M424 516q-27 0 -47 18.5t-20 48.5q0 29 20 47.5t47 18.5t47 -18.5t20 -47.5q0 -30 -20 -48.5t-47 -18.5zM102 335h-69v85h69v166q0 76 35 112.5t100 36.5q40 0 65 -12t43 -30l-56 -68q-8 8 -17 13.5t-26 5.5q-19 0 -31 -12.5t-12 -44.5v-167h272v-420h-102v335h-170v-335
h-101v335z" />
    <glyph glyph-name="fl" unicode="&#xfb02;" horiz-adv-x="544" 
d="M102 335h-69v85h69v125q0 47 15 82.5t40.5 59.5t59 36t71.5 12t72 -11t59.5 -34t40.5 -57t15 -81v-552h-102v546q0 54 -24 76t-61 22t-61 -22.5t-24 -75.5v-126h103v-85h-103v-335h-101v335z" />
    <glyph glyph-name="apple" horiz-adv-x="223" 
d="M112 181q-28 0 -48.5 19.5t-20.5 50.5q0 30 20.5 49t48.5 19q27 0 47.5 -19t20.5 -49q0 -31 -20.5 -50.5t-47.5 -19.5z" />
    </font>
</defs>
</svg>
